<svg width="30.000000" height="18.000000" viewBox="0 0 30 18" fill="none" xmlns="http://www.w3.org/2000/svg" xmlns:xlink="http://www.w3.org/1999/xlink">
	<desc>
			Created with Pixso.
	</desc>
	<defs/>
	<path id="Vector" d="M29.84 16.25C29.8 16.17 29.77 16.1 29.73 16.05C29.21 15.06 28.22 13.85 26.75 12.42L26.72 12.38L26.7 12.37L26.69 12.35L26.67 12.35C26.01 11.68 25.58 11.23 25.41 11C25.08 10.56 25.01 10.12 25.19 9.67C25.31 9.33 25.78 8.62 26.59 7.52C27.02 6.94 27.36 6.47 27.61 6.12C29.41 3.61 30.19 2 29.95 1.29L29.86 1.13C29.8 1.03 29.64 0.94 29.38 0.86C29.12 0.78 28.78 0.76 28.38 0.82L23.88 0.85C23.8 0.82 23.7 0.83 23.57 0.86C23.43 0.89 23.36 0.91 23.36 0.91L23.28 0.95L23.22 1C23.17 1.03 23.11 1.09 23.05 1.17C22.99 1.25 22.94 1.35 22.89 1.46C22.4 2.78 21.85 4.02 21.22 5.16C20.84 5.83 20.48 6.42 20.16 6.92C19.84 7.42 19.57 7.79 19.35 8.02C19.13 8.26 18.93 8.45 18.75 8.59C18.58 8.73 18.44 8.79 18.35 8.77C18.25 8.75 18.17 8.73 18.08 8.7C17.94 8.6 17.82 8.47 17.73 8.3C17.64 8.13 17.58 7.92 17.55 7.66C17.52 7.4 17.5 7.18 17.5 7C17.49 6.81 17.49 6.55 17.5 6.21C17.52 5.87 17.52 5.64 17.52 5.52C17.52 5.1 17.53 4.65 17.54 4.16C17.56 3.67 17.57 3.29 17.58 3C17.59 2.72 17.6 2.42 17.6 2.1C17.6 1.78 17.58 1.53 17.54 1.35C17.51 1.17 17.45 1 17.38 0.83C17.31 0.66 17.2 0.53 17.06 0.43C16.92 0.34 16.74 0.27 16.54 0.21C15.98 0.08 15.28 0.01 14.43 0C12.49 -0.02 11.25 0.11 10.69 0.39C10.48 0.51 10.28 0.68 10.1 0.88C9.91 1.13 9.89 1.26 10.02 1.28C10.65 1.38 11.09 1.61 11.35 1.98L11.44 2.18C11.52 2.32 11.59 2.58 11.66 2.94C11.74 3.3 11.78 3.7 11.8 4.14C11.86 4.94 11.86 5.62 11.8 6.19C11.75 6.76 11.7 7.2 11.66 7.52C11.61 7.84 11.54 8.1 11.44 8.29C11.35 8.49 11.29 8.61 11.26 8.65C11.23 8.7 11.2 8.72 11.18 8.74C11.04 8.79 10.9 8.82 10.76 8.82C10.61 8.82 10.43 8.74 10.23 8.59C10.02 8.43 9.8 8.22 9.58 7.96C9.35 7.69 9.1 7.31 8.82 6.83C8.54 6.35 8.25 5.78 7.95 5.12L7.7 4.65C7.54 4.34 7.33 3.89 7.06 3.31C6.78 2.72 6.55 2.15 6.34 1.61C6.25 1.38 6.13 1.2 5.96 1.08L5.88 1.03C5.83 0.99 5.75 0.94 5.63 0.89C5.52 0.84 5.4 0.81 5.27 0.79L0.99 0.82C0.56 0.82 0.26 0.92 0.1 1.13L0.04 1.23C0.01 1.28 0 1.37 0 1.49C0 1.61 0.03 1.76 0.09 1.93C0.71 3.48 1.39 4.97 2.13 6.4C2.86 7.84 3.5 8.99 4.04 9.87C4.58 10.75 5.13 11.57 5.7 12.35C6.26 13.13 6.63 13.62 6.81 13.84C7 14.06 7.14 14.23 7.24 14.34L7.63 14.73C7.88 14.99 8.25 15.31 8.73 15.68C9.22 16.04 9.75 16.4 10.34 16.76C10.93 17.12 11.62 17.41 12.4 17.63C13.18 17.85 13.94 17.94 14.68 17.9L16.47 17.9C16.84 17.87 17.11 17.75 17.3 17.54L17.36 17.46C17.41 17.39 17.45 17.29 17.48 17.15C17.52 17.02 17.54 16.87 17.54 16.7C17.53 16.23 17.56 15.81 17.64 15.43C17.71 15.05 17.8 14.77 17.9 14.58C18 14.38 18.11 14.22 18.24 14.09C18.36 13.96 18.45 13.88 18.5 13.85C18.56 13.83 18.6 13.81 18.63 13.8C18.88 13.71 19.17 13.79 19.51 14.05C19.85 14.31 20.17 14.62 20.46 15C20.76 15.38 21.12 15.8 21.53 16.28C21.95 16.75 22.32 17.1 22.63 17.33L22.94 17.52C23.15 17.66 23.42 17.78 23.75 17.89C24.09 18 24.38 18.02 24.63 17.97L28.63 17.9C29.02 17.9 29.33 17.83 29.55 17.7C29.77 17.56 29.9 17.41 29.94 17.25C29.98 17.08 29.98 16.89 29.95 16.69C29.91 16.48 29.87 16.33 29.84 16.25Z" fill="#274FB7" fill-opacity="1.000000" fill-rule="nonzero"/>
</svg>
