<svg width="16.800049" height="28.000000" viewBox="0 0 16.8 28" fill="none" xmlns="http://www.w3.org/2000/svg" xmlns:xlink="http://www.w3.org/1999/xlink">
	<desc>
			Created with Pixso.
	</desc>
	<defs/>
	<path id="image 96 (Traced)" d="M7.59 0.04C6.62 0.15 5.72 0.45 4.83 0.95C4.05 1.4 3.3 2.08 2.75 2.83C2.61 3 2.48 3.18 2.46 3.21C2.43 3.24 2.41 3.27 2.41 3.28C2.41 3.29 2.33 3.43 2.23 3.6C2.13 3.76 2.05 3.91 2.05 3.93C2.05 3.95 2 4.08 1.93 4.22C1.35 5.42 1.17 7.21 1.49 8.58C1.64 9.26 1.99 10.16 2.27 10.61C2.46 10.92 2.61 11.16 2.64 11.18C2.65 11.19 2.72 11.27 2.78 11.36C3.49 12.39 4.99 13.44 6.33 13.84C11.88 15.51 16.97 10.21 15.07 4.72C14.94 4.34 14.52 3.44 14.42 3.34C14.4 3.31 14.28 3.14 14.16 2.97C12.8 0.93 10.14 -0.25 7.59 0.04ZM9.47 3.75C12.18 4.67 12.76 8.14 10.51 9.85C8.29 11.53 5.13 10.08 4.92 7.29C4.74 4.87 7.19 2.97 9.47 3.75ZM1.1 14.22C0.78 14.35 0.37 14.75 0.22 15.08C-0.21 16.02 -0.04 16.63 0.83 17.33C0.93 17.42 1.05 17.51 1.08 17.54C1.4 17.85 2.71 18.62 3.35 18.87C4.3 19.25 6.1 19.68 6.77 19.68C7.11 19.68 7.12 19.67 4.36 22.44C2.89 23.92 1.62 25.21 1.55 25.32C0.73 26.51 2.08 28.34 3.48 27.94C3.93 27.81 4.08 27.68 6.28 25.47C8.8 22.95 8.06 22.96 10.52 25.41C12.79 27.69 12.76 27.67 13.02 27.81C14.34 28.51 15.96 27.03 15.44 25.6C15.34 25.32 15.26 25.24 12.59 22.56C9.67 19.64 9.74 19.71 10 19.69C13.09 19.5 16.8 17.46 16.79 15.97C16.79 14.18 14.79 13.51 13.45 14.84C13.35 14.94 12.47 15.42 12.13 15.56C9.69 16.56 6.54 16.49 4.26 15.37C3.85 15.17 3.67 15.06 2.99 14.59C2.33 14.13 1.65 14 1.1 14.22Z" fill="#FF9900" fill-opacity="1.000000" fill-rule="evenodd"/>
</svg>
