<svg width="25.000000" height="20.660156" viewBox="0 0 25 20.6602" fill="none" xmlns="http://www.w3.org/2000/svg" xmlns:xlink="http://www.w3.org/1999/xlink">
	<desc>
			Created with Pixso.
	</desc>
	<defs/>
	<path id="Vector" d="M22.87 0.18C19.58 1.54 5.44 7.4 1.53 9C-1.09 10.02 0.44 10.98 0.44 10.98C0.44 10.98 2.68 11.75 4.6 12.32C6.51 12.9 7.54 12.26 7.54 12.26L16.55 6.18C19.74 4.01 18.98 5.8 18.21 6.57C16.55 8.23 13.8 10.85 11.5 12.96C10.48 13.85 10.99 14.62 11.43 15.01C13.1 16.41 17.63 19.29 17.89 19.48C19.24 20.43 21.9 21.81 22.3 18.9L23.9 8.87C24.41 5.48 24.92 2.35 24.98 1.46C25.18 -0.72 22.87 0.18 22.87 0.18Z" fill="#5B87F7" fill-opacity="1.000000" fill-rule="nonzero"/>
</svg>
