<svg width="22.500000" height="25.000000" viewBox="0 0 22.5 25" fill="none" xmlns="http://www.w3.org/2000/svg" xmlns:xlink="http://www.w3.org/1999/xlink">
	<desc>
			Created with Pixso.
	</desc>
	<defs/>
	<path id="Icon" d="M13.75 0L8.75 0C3.9 0 0 3.9 0 8.75L0 12.5C0 15.88 1.94 18.96 5 20.4L5 24.59C5 24.8 5.19 25 5.44 25C5.53 25 5.65 24.96 5.73 24.88L9.34 21.25L13.75 21.25C18.59 21.25 22.5 17.34 22.5 12.5L22.5 8.75C22.5 3.9 18.59 0 13.75 0ZM17.03 16.4L15.78 17.65C14.44 18.96 10.98 17.46 7.92 14.34C4.86 11.23 3.5 7.71 4.78 6.4L6.03 5.15C6.53 4.69 7.32 4.71 7.82 5.19L9.63 7.07C10.09 7.57 10.09 8.32 9.59 8.82C9.46 8.96 9.3 9.03 9.13 9.11C8.5 9.3 8.17 9.92 8.32 10.55C8.63 11.94 10.38 13.67 11.71 14.01C12.32 14.17 12.96 13.82 13.17 13.23C13.38 12.61 14.07 12.26 14.73 12.48C14.92 12.53 15.07 12.67 15.23 12.78L17.03 14.67C17.5 15.13 17.5 15.9 17.03 16.4ZM12.36 5.94C12.23 5.94 12.11 5.94 12 5.98C11.78 6.01 11.55 5.84 11.53 5.59C11.51 5.34 11.67 5.15 11.9 5.13C12.05 5.09 12.21 5.09 12.36 5.09C14.67 5.09 16.51 6.98 16.55 9.25C16.55 9.4 16.55 9.55 16.51 9.71C16.48 9.92 16.3 10.11 16.05 10.07C15.8 10.03 15.65 9.86 15.69 9.61C15.69 9.48 15.73 9.36 15.73 9.25C15.71 7.44 14.21 5.94 12.36 5.94ZM14.86 9.28C14.82 9.5 14.65 9.69 14.4 9.65C14.21 9.61 14.03 9.46 14.03 9.28C14.03 8.38 13.28 7.63 12.38 7.63C12.17 7.67 11.94 7.48 11.92 7.25C11.88 7.03 12.07 6.8 12.28 6.78L12.34 6.78C13.78 6.78 14.86 7.9 14.86 9.28ZM18.05 10.61C18.01 10.82 17.8 10.98 17.59 10.96C17.38 10.94 17.23 10.71 17.25 10.5C17.25 10.46 17.25 10.46 17.25 10.44C17.34 10.07 17.38 9.69 17.38 9.28C17.38 6.53 15.13 4.28 12.38 4.28C12.25 4.28 12.13 4.28 12.01 4.28C11.8 4.32 11.57 4.13 11.57 3.9C11.53 3.69 11.73 3.46 11.94 3.46C12.09 3.46 12.25 3.42 12.38 3.42C15.59 3.42 18.23 6.03 18.23 9.26C18.21 9.71 18.15 10.19 18.05 10.61Z" fill="#8B49F6" fill-opacity="1.000000" fill-rule="nonzero"/>
</svg>
