<svg width="24.000000" height="24.000000" viewBox="0 0 24 24" fill="none" xmlns="http://www.w3.org/2000/svg" xmlns:xlink="http://www.w3.org/1999/xlink">
	<desc>
			Created with Pixso.
	</desc>
	<defs/>
	<path id="Icon_40_" d="M23.28 14.52C25.02 6.73 18.18 -0.35 10.14 1C5.79 -1.7 0 1.36 0 6.55C0 7.75 0.33 8.89 0.9 9.85C-0.7 17.67 6.18 24.66 14.22 23.19C19.89 26.19 26.13 20.22 23.28 14.52ZM15.66 19.23C13.56 20.1 10.08 20.1 7.98 18.99C4.98 17.4 4.47 13.8 7.05 13.8C9 13.8 8.37 16.08 10.35 16.98C11.25 17.4 13.2 17.43 14.31 16.68C15.42 15.93 15.33 14.76 14.73 14.22C13.14 12.75 8.55 13.32 6.45 10.75C5.55 9.64 5.37 7.66 6.48 6.22C8.43 3.7 14.16 3.55 16.62 5.44C18.9 7.21 18.27 9.52 16.44 9.52C14.25 9.52 15.39 6.64 11.82 6.64C9.24 6.64 8.22 8.47 10.05 9.37C12.51 10.62 18.78 10.21 18.78 15C18.78 16.98 17.55 18.45 15.66 19.23Z" fill="#0085FF" fill-opacity="1.000000" fill-rule="nonzero"/>
</svg>
