<svg width="28.125000" height="25.000000" viewBox="0 0 28.125 25" fill="none" xmlns="http://www.w3.org/2000/svg" xmlns:xlink="http://www.w3.org/1999/xlink">
	<desc>
			Created with Pixso.
	</desc>
	<defs/>
	<path id="Icon_69_" d="M28.12 12.71C28.05 11.03 26.64 9.7 24.92 9.73C24.15 9.77 23.44 10.08 22.92 10.57C20.52 8.92 17.68 8.05 14.76 7.98L16.13 1.41L20.66 2.33C20.81 3.48 21.83 4.33 22.99 4.19C24.15 4.05 24.99 3.03 24.85 1.87C24.71 0.71 23.69 -0.13 22.53 0.01C21.86 0.08 21.26 0.47 20.95 1.03L15.78 0.01C15.43 -0.06 15.08 0.15 15 0.5L13.46 7.84C10.5 7.87 7.66 8.78 5.2 10.43C3.96 9.27 2 9.31 0.84 10.57C-0.32 11.8 -0.29 13.77 0.98 14.92C1.22 15.13 1.5 15.35 1.82 15.49C1.79 15.8 1.79 16.12 1.82 16.4C1.82 21.14 7.34 25 14.16 25C20.98 25 26.5 21.17 26.5 16.4C26.54 16.08 26.54 15.77 26.5 15.49C27.49 14.99 28.15 13.91 28.12 12.71ZM6.92 14.85C6.92 13.7 7.87 12.75 9.03 12.75C10.19 12.75 11.14 13.7 11.14 14.85C11.14 16.01 10.19 16.96 9.03 16.96C7.87 16.96 6.92 16.01 6.92 14.85ZM19.22 20.68C17.71 21.8 15.88 22.4 14.02 22.29C12.16 22.36 10.29 21.8 8.82 20.68C8.61 20.43 8.64 20.08 8.89 19.87C9.1 19.7 9.38 19.7 9.63 19.87C10.89 20.78 12.44 21.28 14.02 21.21C15.6 21.28 17.15 20.85 18.45 19.91C18.7 19.7 19.05 19.7 19.29 19.91C19.5 20.15 19.5 20.5 19.29 20.75L19.29 20.68L19.22 20.68ZM18.87 17.06C17.71 17.06 16.76 16.12 16.76 14.96C16.76 13.8 17.71 12.85 18.87 12.85C20.03 12.85 20.98 13.8 20.98 14.96C21.02 16.12 20.14 17.1 18.94 17.13C18.91 17.13 18.87 17.13 18.84 17.13L18.87 17.06Z" fill="#EB3636" fill-opacity="1.000000" fill-rule="nonzero"/>
</svg>
