<svg width="263.000000" height="50.000000" viewBox="0 0 263 50" fill="none" xmlns="http://www.w3.org/2000/svg" xmlns:xlink="http://www.w3.org/1999/xlink">
	<desc>
			Created with Pixso.
	</desc>
	<defs>
		<filter id="filter_90_17227_dd" x="-547.000000" y="-7066.000000" width="0.000000" height="0.000000" filterUnits="userSpaceOnUse" color-interpolation-filters="sRGB">
			<feFlood flood-opacity="0" result="BackgroundImageFix"/>
			<feBlend mode="normal" in="SourceGraphic" in2="BackgroundImageFix" result="shape"/>
			<feGaussianBlur stdDeviation="4" result="effect_layerBlur_1"/>
		</filter>
	</defs>
	<mask id="mask90_17230" mask-type="alpha" maskUnits="userSpaceOnUse" x="0.000000" y="3.512695" width="35.000000" height="39.117676">
		<path id="_12.Play" d="M0 10.36C0 5.09 5.58 1.8 10.05 4.44L31.64 17.15C36.11 19.78 36.11 26.36 31.64 28.99L10.05 41.71C5.58 44.33 0 41.04 0 35.78L0 10.36Z" fill="#FFC001" fill-opacity="1.000000" fill-rule="nonzero"/>
	</mask>
	<g mask="url(#mask90_17230)">
		<path id="_12.Play" d="M0 10.36C0 5.09 5.58 1.8 10.05 4.44L31.64 17.15C36.11 19.78 36.11 26.36 31.64 28.99L10.05 41.71C5.58 44.33 0 41.04 0 35.78L0 10.36Z" fill="#FFC001" fill-opacity="1.000000" fill-rule="nonzero"/>
	</g>
	<g mask="url(#mask90_17230)">
		<path id="Vector" d="M40.29 17.81C41.31 23.61 46.8 29.77 42.85 34.6C38.8 39.55 29.94 40.22 22.95 39.03C16.9 38 13.79 32.88 9.74 28.96C6.14 25.47 1.39 22.42 1.05 17.81C0.7 13 3.84 8.5 8 5.2C12.03 2 17.41 0.39 22.95 0.42C28.44 0.45 34.14 1.84 37.67 5.39C41.01 8.73 39.52 13.49 40.29 17.81Z" fill="#FFC001" fill-opacity="1.000000" fill-rule="evenodd"/>
	</g>
	<path id="Cinema" d="M86.88 10.81L86.88 15.88L93.58 15.88L93.58 10.81L86.88 10.81ZM66.12 38.59Q69.14 40.14 73 40.14C75.18 40.14 77.1 39.87 78.77 39.33Q81.28 38.49 82.89 37.38L82.89 30.57L78.14 30.57L77.49 34.39C76.79 34.65 76.06 34.86 75.3 35.02Q74.17 35.25 73.08 35.25Q71.56 35.25 70.31 34.67Q69.86 34.47 69.44 34.19C68.4 33.48 67.59 32.51 67.01 31.26C66.43 30 66.14 28.54 66.14 26.88L66.14 25.6Q66.14 22.94 66.97 21.09C67.54 19.84 68.34 18.89 69.37 18.23C70.39 17.58 71.59 17.25 72.97 17.25Q73.88 17.25 74.66 17.42C75.19 17.53 75.68 17.69 76.14 17.9C76.61 18.11 77.05 18.36 77.48 18.64L78.12 22.63L82.86 22.63L82.86 15.67Q80.92 14.07 78.7 13.3Q78.41 13.2 78.11 13.11C76.41 12.6 74.62 12.35 72.74 12.35Q68.7 12.35 65.75 14.06Q64.34 14.87 63.24 15.98Q62.05 17.19 61.22 18.75Q59.64 21.74 59.64 25.64L59.64 26.88Q59.64 31.11 61.37 34.08Q62.26 35.6 63.49 36.74Q64.65 37.83 66.12 38.59ZM96.96 35.95L96.96 39.76L107.48 39.76L107.48 35.95L105.81 35.36L105.81 25.6C106.13 25.17 106.51 24.84 106.94 24.63Q107.59 24.3 108.5 24.3C109.3 24.3 109.92 24.53 110.35 24.99C110.79 25.43 111 26.19 111 27.27L111 35.36L109.11 35.95L109.11 39.76L119.87 39.76L119.87 35.95L117.54 35.36L117.54 27.29C117.54 24.52 116.99 22.49 115.9 21.22Q115.35 20.57 114.66 20.14Q113.32 19.31 111.45 19.31C110.21 19.31 109.11 19.59 108.13 20.14Q107.93 20.26 107.75 20.38Q106.55 21.18 105.68 22.48L105.46 19.68L96.51 19.68L96.51 23.5L99.3 24.1L99.3 35.36L96.96 35.95ZM125.76 38.88C127.23 39.72 128.95 40.14 130.91 40.14C132.51 40.14 133.96 39.93 135.25 39.51C136.55 39.09 137.66 38.56 138.56 37.92L137.07 33.98C136.17 34.41 135.31 34.71 134.49 34.91C133.69 35.1 132.87 35.19 132.03 35.19C131.17 35.19 130.46 35.05 129.87 34.76C129.29 34.48 128.84 34.1 128.5 33.61C128.18 33.12 127.97 32.56 127.87 31.93L127.89 31.8L138.93 31.8L138.93 28.44C138.93 26.46 138.6 24.79 137.95 23.45C137.29 22.09 136.33 21.06 135.07 20.37C133.82 19.66 132.29 19.31 130.47 19.31C128.45 19.31 126.75 19.75 125.37 20.64Q124.65 21.09 124.06 21.67Q122.92 22.77 122.21 24.32C121.49 25.88 121.14 27.68 121.14 29.72L121.14 30.4C121.14 32.26 121.54 33.92 122.34 35.39C123.16 36.87 124.3 38.03 125.76 38.88ZM140.89 35.95L140.89 39.76L151.66 39.76L151.66 35.95L149.75 35.36L149.75 25.58C150.09 25.16 150.49 24.84 150.95 24.63C151.41 24.41 151.92 24.3 152.47 24.3C153.19 24.3 153.73 24.51 154.09 24.93C154.45 25.35 154.63 26.15 154.63 27.32L154.63 35.36L152.96 35.95L152.96 39.76L162.77 39.76L162.77 35.95L161.1 35.36L161.1 25.56C161.45 25.15 161.85 24.84 162.31 24.63C162.77 24.41 163.28 24.3 163.85 24.3C164.54 24.3 165.07 24.51 165.43 24.93Q165.98 25.56 165.98 27.32L165.98 35.36L164.07 35.95L164.07 39.76L174.85 39.76L174.85 35.95L172.48 35.36L172.48 27.32Q172.48 23.24 170.81 21.27C169.69 19.96 168.17 19.31 166.22 19.31Q164.28 19.31 162.84 20.16L162.83 20.16C161.88 20.73 161.1 21.53 160.49 22.57C160.03 21.47 159.35 20.66 158.45 20.12C157.56 19.58 156.49 19.31 155.24 19.31C154 19.31 152.91 19.57 151.97 20.11C151.03 20.64 150.24 21.39 149.58 22.35L149.38 19.68L140.45 19.68L140.45 23.5L143.27 24.1L143.27 35.36L140.89 35.95ZM178.23 38.49C179.45 39.59 181.04 40.14 182.98 40.14C184.14 40.14 185.1 39.93 185.85 39.51C186.61 39.09 187.29 38.51 187.89 37.75Q188.01 38.31 188.28 38.86C188.47 39.24 188.64 39.53 188.8 39.76L196.41 39.76L196.41 35.95L194.24 35.58C194.19 35.33 194.16 35.07 194.15 34.8L194.15 26.56C194.15 24.24 193.34 22.45 191.74 21.2Q189.32 19.31 185.22 19.31Q182.92 19.31 181.05 19.86C179.81 20.24 178.62 20.67 177.49 21.18L177.58 26.77L182.16 26.77L182.61 24.21C182.9 24.01 183.23 23.86 183.59 23.76C183.96 23.65 184.36 23.59 184.78 23.59C185.77 23.59 186.49 23.88 186.95 24.45C187.41 25 187.64 25.68 187.64 26.49L187.64 27.68L185.54 27.68C182.47 27.68 180.18 28.28 178.65 29.48C177.15 30.68 176.39 32.22 176.39 34.1Q176.39 35.9 177.18 37.23Q177.6 37.93 178.23 38.49ZM84.71 35.95L84.71 39.76L95.92 39.76L95.92 35.95L93.58 35.36L93.58 19.68L84.27 19.68L84.27 23.5L87.07 24.1L87.07 35.36L84.71 35.95ZM132.99 27.77L127.89 27.77L127.81 27.68C127.89 26.97 128.01 26.35 128.19 25.8C128.37 25.25 128.66 24.81 129.04 24.5C129.44 24.18 129.96 24.02 130.62 24.02C131.22 24.02 131.7 24.14 132.05 24.39C132.39 24.64 132.63 25 132.77 25.49C132.92 25.97 132.99 26.57 132.99 27.29L132.99 27.77ZM186.39 35.27C185.92 35.45 185.45 35.54 184.98 35.54C184.36 35.54 183.86 35.37 183.46 35.02C183.06 34.68 182.87 34.2 182.87 33.6C182.87 32.96 183.1 32.46 183.57 32.07C184.05 31.69 184.73 31.5 185.61 31.5L187.64 31.5L187.64 34.39C187.29 34.78 186.87 35.07 186.39 35.27Z" fill="#0E141A" fill-opacity="1.000000" fill-rule="evenodd"/>
	<path id="guide" d="M205.47 24.14L211.14 24.14Q211.48 24.14 211.63 23.98Q211.79 23.83 211.79 23.49L211.79 17.93Q211.79 17.59 211.63 17.43Q211.48 17.28 211.14 17.28L208.35 17.28Q208.01 17.28 207.85 17.43Q207.7 17.59 207.7 17.93L207.7 20.74L205.95 20.74Q205.56 20.74 205.35 20.54Q205.34 20.53 205.33 20.52Q205.12 20.31 205.12 19.85L205.12 15.55Q205.12 15.18 205.31 14.97Q205.34 14.92 205.39 14.88Q205.66 14.65 206.22 14.65L209.97 14.65Q210.31 14.65 210.46 14.5Q210.62 14.35 210.62 14L210.62 11.82Q210.62 11.49 210.46 11.33Q210.31 11.18 209.97 11.18L205.47 11.18Q203.22 11.18 202.13 12.08Q201.97 12.21 201.84 12.35Q201.04 13.24 201.04 14.85L201.04 20.46Q201.04 22.07 201.84 22.96Q201.97 23.11 202.13 23.24Q203.22 24.14 205.47 24.14ZM224.77 22.24Q225.01 21.56 225.01 20.74L225.01 11.82Q225.01 11.49 224.86 11.33Q224.71 11.18 224.37 11.18L221.63 11.18Q221.29 11.18 221.14 11.33Q220.98 11.49 220.98 11.82L220.98 20.03Q220.98 20.2 220.92 20.35Q220.86 20.51 220.71 20.64Q220.44 20.88 219.49 20.88Q218.55 20.88 218.28 20.64Q218.14 20.51 218.08 20.36Q218.01 20.21 218.01 20.03L218.01 11.82Q218.01 11.49 217.86 11.33Q217.71 11.18 217.37 11.18L214.54 11.18Q214.2 11.18 214.04 11.33Q213.89 11.49 213.89 11.82L213.89 20.74Q213.89 21.56 214.13 22.24Q214.19 22.38 214.26 22.52Q214.51 23.02 215 23.39Q215.62 23.87 216.7 24.14Q217.78 24.41 219.45 24.41Q221.13 24.41 222.21 24.14Q223.29 23.87 223.91 23.39Q224.4 23.01 224.66 22.51Q224.72 22.38 224.77 22.24ZM227.27 23.98Q227.43 24.14 227.77 24.14L235.44 24.14Q235.78 24.14 235.93 23.98Q236.09 23.83 236.09 23.49L236.09 21.35Q236.09 21 235.93 20.86Q235.78 20.7 235.44 20.7L233.69 20.7L233.69 14.65L235.44 14.65Q235.78 14.65 235.93 14.5Q236.09 14.35 236.09 14L236.09 11.82Q236.09 11.49 235.93 11.33Q235.78 11.18 235.44 11.18L227.77 11.18Q227.43 11.18 227.27 11.33Q227.12 11.49 227.12 11.82L227.12 14Q227.12 14.35 227.27 14.5Q227.43 14.65 227.77 14.65L229.55 14.65L229.55 20.7L227.77 20.7Q227.43 20.7 227.27 20.86Q227.12 21 227.12 21.35L227.12 23.49Q227.12 23.83 227.27 23.98ZM238.95 24.14L245.01 24.14Q247.26 24.14 248.35 23.24Q248.51 23.1 248.65 22.95Q249.44 22.06 249.44 20.46L249.44 14.85Q249.44 13.25 248.65 12.36Q248.51 12.21 248.35 12.08Q247.26 11.18 245.01 11.18L238.95 11.18Q238.6 11.18 238.45 11.33Q238.3 11.49 238.3 11.82L238.3 23.49Q238.3 23.83 238.45 23.98Q238.6 24.14 238.95 24.14ZM252.38 24.14L260.73 24.14Q261.07 24.14 261.22 23.98Q261.38 23.83 261.38 23.49L261.38 21.38Q261.38 21.04 261.22 20.89Q261.07 20.74 260.73 20.74L255.76 20.74L255.76 19.19L259.27 19.19Q259.61 19.19 259.76 19.04Q259.92 18.88 259.92 18.54L259.92 16.61Q259.92 16.27 259.76 16.12Q259.61 15.96 259.27 15.96L255.76 15.96L255.76 14.58L260.73 14.58Q261.07 14.58 261.22 14.43Q261.38 14.27 261.38 13.93L261.38 11.82Q261.38 11.49 261.22 11.33Q261.07 11.18 260.73 11.18L252.38 11.18Q252.03 11.18 251.88 11.33Q251.73 11.49 251.73 11.82L251.73 23.49Q251.73 23.83 251.88 23.98Q252.03 24.14 252.38 24.14ZM209.82 22.52L206.24 22.52Q205.25 22.52 204.62 22.39Q203.99 22.27 203.63 21.99Q203.46 21.85 203.33 21.68Q203.2 21.5 203.13 21.27Q203 20.82 203 20.2L203 15.16Q203 13.88 203.58 13.34Q204.15 12.8 205.88 12.8L209 12.8L209 12.98L205.88 12.98Q204.3 12.98 203.74 13.47Q203.18 13.97 203.18 15.16L203.18 20.2Q203.18 21.29 203.73 21.79Q203.76 21.82 203.8 21.85Q204.43 22.34 206.24 22.34L209.64 22.34L209.64 18.9L209.82 18.9L209.82 22.52ZM215.87 20.31L215.87 12.8L216.05 12.8L216.05 20.31Q216.05 20.9 216.3 21.37Q216.47 21.68 216.76 21.94Q217.47 22.56 219.47 22.56Q221.47 22.56 222.19 21.94Q222.49 21.67 222.67 21.34Q222.91 20.89 222.91 20.31L222.91 12.8L223.09 12.8L223.09 20.31Q223.09 20.94 222.83 21.44Q222.64 21.78 222.33 22.06Q221.58 22.74 219.47 22.74Q217.37 22.74 216.62 22.06Q216.32 21.79 216.14 21.45Q215.87 20.95 215.87 20.31ZM234.46 22.34L234.46 22.52L228.74 22.52L228.74 22.34L231.53 22.34L231.53 12.98L228.74 12.98L228.74 12.8L234.46 12.8L234.46 12.98L231.71 12.98L231.71 22.34L234.46 22.34ZM244.62 22.52L240.26 22.52L240.26 12.8L244.62 12.8Q245.53 12.8 246.1 13Q246.67 13.2 246.98 13.53Q247.07 13.64 247.15 13.76Q247.32 14.01 247.39 14.32Q247.5 14.78 247.5 15.3L247.5 20.07Q247.5 20.59 247.4 21.04Q247.34 21.31 247.21 21.53Q247.12 21.68 246.99 21.82Q246.69 22.14 246.11 22.33Q245.53 22.52 244.62 22.52ZM253.87 22.34L259.75 22.34L259.75 22.52L253.69 22.52L253.69 12.8L259.75 12.8L259.75 12.98L253.87 12.98L253.87 17.5L258.3 17.5L258.3 17.68L253.87 17.68L253.87 22.34ZM245.99 13.16Q245.46 12.98 244.62 12.98L240.44 12.98L240.44 22.34L244.62 22.34Q245.48 22.34 246.01 22.17Q246.55 22 246.83 21.7Q246.94 21.59 247.02 21.46Q247.16 21.25 247.22 20.98Q247.32 20.56 247.32 20.07L247.32 15.3Q247.32 14.81 247.21 14.38Q247.14 14.09 246.98 13.85Q246.91 13.74 246.81 13.64Q246.52 13.34 245.99 13.16ZM242.38 20.74L242.38 14.62L244.53 14.62Q244.96 14.62 245.17 14.82Q245.37 15.03 245.37 15.48L245.37 19.85Q245.37 20.31 245.17 20.52L245.17 20.52Q244.96 20.74 244.53 20.74L242.38 20.74Z" fill="#FDBF01" fill-opacity="1.000000" fill-rule="evenodd"/>
</svg>
