<svg width="259.868225" height="50.000000" viewBox="0 0 259.868 50" fill="none" xmlns="http://www.w3.org/2000/svg" xmlns:xlink="http://www.w3.org/1999/xlink">
	<desc>
			Created with Pixso.
	</desc>
	<defs>
		<filter id="filter_90_17383_dd" x="-550.131775" y="-4169.000000" width="0.000000" height="0.000000" filterUnits="userSpaceOnUse" color-interpolation-filters="sRGB">
			<feFlood flood-opacity="0" result="BackgroundImageFix"/>
			<feBlend mode="normal" in="SourceGraphic" in2="BackgroundImageFix" result="shape"/>
			<feGaussianBlur stdDeviation="4" result="effect_layerBlur_1"/>
		</filter>
	</defs>
	<mask id="mask90_17386" mask-type="alpha" maskUnits="userSpaceOnUse" x="0.000000" y="5.000000" width="35.022583" height="39.143066">
		<path id="_12.Play" d="M0 11.85C0 6.58 5.59 3.29 10.06 5.92L31.66 18.65C36.14 21.28 36.14 27.87 31.66 30.5L10.06 43.22C5.59 45.84 0 42.55 0 37.28L0 11.85Z" fill="#FFC001" fill-opacity="1.000000" fill-rule="nonzero"/>
	</mask>
	<g mask="url(#mask90_17386)">
		<path id="_12.Play" d="M0 11.85C0 6.58 5.59 3.29 10.06 5.92L31.66 18.65C36.14 21.28 36.14 27.87 31.66 30.5L10.06 43.22C5.59 45.84 0 42.55 0 37.28L0 11.85Z" fill="#FFC001" fill-opacity="1.000000" fill-rule="nonzero"/>
	</g>
	<g mask="url(#mask90_17386)">
		<path id="Vector" d="M40.31 19.31C41.34 25.11 46.83 31.27 42.88 36.11C38.83 41.06 29.96 41.73 22.96 40.54C16.91 39.5 13.8 34.39 9.74 30.46C6.14 26.97 1.39 23.92 1.05 19.31C0.7 14.5 3.84 9.99 8 6.69C12.04 3.48 17.42 1.87 22.96 1.91C28.46 1.94 34.16 3.33 37.7 6.88C41.04 10.22 39.55 14.98 40.31 19.31Z" fill="#FFC001" fill-opacity="1.000000" fill-rule="evenodd"/>
	</g>
	<path id="Cinema" d="M83.75 10.81L83.75 15.88L90.45 15.88L90.45 10.81L83.75 10.81ZM62.99 38.59Q66.01 40.14 69.87 40.14C72.05 40.14 73.97 39.87 75.64 39.33Q78.15 38.49 79.76 37.38L79.76 30.57L75.01 30.57L74.36 34.39C73.66 34.65 72.93 34.86 72.17 35.02Q71.04 35.25 69.95 35.25Q68.43 35.25 67.18 34.67Q66.73 34.47 66.31 34.19C65.27 33.48 64.46 32.51 63.88 31.26C63.3 30 63.01 28.54 63.01 26.88L63.01 25.6Q63.01 22.94 63.84 21.09C64.41 19.84 65.21 18.89 66.24 18.23C67.26 17.58 68.46 17.25 69.83 17.25Q70.74 17.25 71.52 17.42C72.06 17.53 72.55 17.69 73.01 17.9C73.48 18.11 73.92 18.36 74.34 18.64L74.99 22.63L79.72 22.63L79.72 15.67Q77.79 14.07 75.57 13.3Q75.27 13.2 74.97 13.11C73.28 12.6 71.49 12.35 69.61 12.35Q65.57 12.35 62.62 14.06Q61.21 14.87 60.11 15.98Q58.92 17.19 58.09 18.75Q56.51 21.74 56.51 25.64L56.51 26.88Q56.51 31.11 58.24 34.08Q59.13 35.6 60.36 36.74Q61.52 37.83 62.99 38.59ZM93.83 35.95L93.83 39.76L104.35 39.76L104.35 35.95L102.68 35.36L102.68 25.6C103 25.17 103.38 24.84 103.81 24.63Q104.46 24.3 105.37 24.3C106.17 24.3 106.79 24.53 107.22 24.99C107.66 25.43 107.87 26.19 107.87 27.27L107.87 35.36L105.98 35.95L105.98 39.76L116.74 39.76L116.74 35.95L114.4 35.36L114.4 27.29C114.4 24.52 113.86 22.49 112.77 21.22Q112.22 20.57 111.53 20.14Q110.18 19.31 108.32 19.31C107.08 19.31 105.97 19.59 105 20.14Q104.8 20.26 104.61 20.38Q103.41 21.18 102.55 22.48L102.32 19.68L93.38 19.68L93.38 23.5L96.16 24.1L96.16 35.36L93.83 35.95ZM122.62 38.88C124.1 39.72 125.81 40.14 127.78 40.14C129.38 40.14 130.82 39.93 132.12 39.51C133.42 39.09 134.52 38.56 135.43 37.92L133.94 33.98C133.04 34.41 132.18 34.71 131.36 34.91C130.56 35.1 129.74 35.19 128.89 35.19C128.04 35.19 127.32 35.05 126.74 34.76C126.16 34.48 125.7 34.1 125.37 33.61C125.05 33.12 124.84 32.56 124.74 31.93L124.76 31.8L135.8 31.8L135.8 28.44C135.8 26.46 135.47 24.79 134.81 23.45C134.16 22.09 133.2 21.06 131.94 20.37C130.69 19.66 129.15 19.31 127.34 19.31C125.32 19.31 123.62 19.75 122.23 20.64Q121.52 21.09 120.93 21.67Q119.79 22.77 119.08 24.32C118.36 25.88 118 27.68 118 29.72L118 30.4C118 32.26 118.41 33.92 119.21 35.39C120.03 36.87 121.16 38.03 122.62 38.88ZM137.76 35.95L137.76 39.76L148.53 39.76L148.53 35.95L146.61 35.36L146.61 25.58C146.96 25.16 147.36 24.84 147.82 24.63C148.28 24.41 148.78 24.3 149.34 24.3C150.06 24.3 150.6 24.51 150.96 24.93C151.32 25.35 151.49 26.15 151.49 27.32L151.49 35.36L149.82 35.95L149.82 39.76L159.64 39.76L159.64 35.95L157.97 35.36L157.97 25.56C158.32 25.15 158.72 24.84 159.18 24.63C159.63 24.41 160.15 24.3 160.72 24.3C161.41 24.3 161.93 24.51 162.29 24.93Q162.85 25.56 162.85 27.32L162.85 35.36L160.94 35.95L160.94 39.76L171.72 39.76L171.72 35.95L169.34 35.36L169.34 27.32Q169.34 23.24 167.67 21.27C166.56 19.96 165.03 19.31 163.09 19.31Q161.15 19.31 159.71 20.16L159.7 20.16C158.74 20.73 157.96 21.53 157.36 22.57C156.9 21.47 156.22 20.66 155.32 20.12C154.43 19.58 153.36 19.31 152.11 19.31C150.87 19.31 149.78 19.57 148.84 20.11C147.9 20.64 147.1 21.39 146.45 22.35L146.24 19.68L137.32 19.68L137.32 23.5L140.14 24.1L140.14 35.36L137.76 35.95ZM175.1 38.49C176.32 39.59 177.9 40.14 179.85 40.14C181.01 40.14 181.97 39.93 182.72 39.51C183.48 39.09 184.16 38.51 184.76 37.75Q184.87 38.31 185.15 38.86C185.34 39.24 185.51 39.53 185.67 39.76L193.28 39.76L193.28 35.95L191.11 35.58C191.06 35.33 191.03 35.07 191.02 34.8L191.02 26.56C191.02 24.24 190.21 22.45 188.6 21.2Q186.19 19.31 182.09 19.31Q179.79 19.31 177.92 19.86C176.68 20.24 175.49 20.67 174.35 21.18L174.45 26.77L179.03 26.77L179.48 24.21C179.77 24.01 180.1 23.86 180.46 23.76C180.83 23.65 181.23 23.59 181.65 23.59C182.64 23.59 183.36 23.88 183.82 24.45C184.27 25 184.5 25.68 184.5 26.49L184.5 27.68L182.41 27.68C179.34 27.68 177.04 28.28 175.52 29.48C174.01 30.68 173.26 32.22 173.26 34.1Q173.26 35.9 174.05 37.23Q174.47 37.93 175.1 38.49ZM81.58 35.95L81.58 39.76L92.79 39.76L92.79 35.95L90.45 35.36L90.45 19.68L81.13 19.68L81.13 23.5L83.94 24.1L83.94 35.36L81.58 35.95ZM129.86 27.77L124.76 27.77L124.68 27.68C124.76 26.97 124.88 26.35 125.05 25.8C125.24 25.25 125.52 24.81 125.91 24.5C126.3 24.18 126.83 24.02 127.48 24.02C128.09 24.02 128.57 24.14 128.91 24.39C129.26 24.64 129.5 25 129.64 25.49C129.78 25.97 129.86 26.57 129.86 27.29L129.86 27.77ZM183.26 35.27C182.79 35.45 182.32 35.54 181.85 35.54C181.23 35.54 180.72 35.37 180.33 35.02C179.93 34.68 179.73 34.2 179.73 33.6C179.73 32.96 179.97 32.46 180.44 32.07C180.92 31.69 181.6 31.5 182.48 31.5L184.5 31.5L184.5 34.39C184.16 34.78 183.74 35.07 183.26 35.27Z" fill="#FFFFFF" fill-opacity="1.000000" fill-rule="evenodd"/>
	<path id="guide" d="M202.33 24.14L208 24.14Q208.35 24.14 208.5 23.98Q208.65 23.83 208.65 23.49L208.65 17.93Q208.65 17.59 208.5 17.43Q208.35 17.28 208 17.28L205.22 17.28Q204.87 17.28 204.72 17.43Q204.57 17.59 204.57 17.93L204.57 20.74L202.82 20.74Q202.43 20.74 202.22 20.54Q202.21 20.53 202.2 20.52Q201.99 20.31 201.99 19.85L201.99 15.55Q201.99 15.18 202.17 14.97Q202.21 14.92 202.26 14.88Q202.53 14.65 203.09 14.65L206.83 14.65Q207.18 14.65 207.33 14.5Q207.49 14.35 207.49 14L207.49 11.82Q207.49 11.49 207.33 11.33Q207.18 11.18 206.83 11.18L202.33 11.18Q200.08 11.18 199 12.08Q198.84 12.21 198.71 12.35Q197.91 13.24 197.91 14.85L197.91 20.46Q197.91 22.07 198.71 22.96Q198.84 23.11 199 23.24Q200.08 24.14 202.33 24.14ZM221.64 22.24Q221.88 21.56 221.88 20.74L221.88 11.82Q221.88 11.49 221.73 11.33Q221.58 11.18 221.24 11.18L218.5 11.18Q218.16 11.18 218.01 11.33Q217.85 11.49 217.85 11.82L217.85 20.03Q217.85 20.2 217.79 20.35Q217.72 20.51 217.58 20.64Q217.31 20.88 216.36 20.88Q215.42 20.88 215.15 20.64Q215.01 20.51 214.94 20.36Q214.88 20.21 214.88 20.03L214.88 11.82Q214.88 11.49 214.73 11.33Q214.57 11.18 214.24 11.18L211.41 11.18Q211.07 11.18 210.91 11.33Q210.76 11.49 210.76 11.82L210.76 20.74Q210.76 21.56 211 22.24Q211.05 22.38 211.12 22.52Q211.38 23.02 211.87 23.39Q212.49 23.87 213.57 24.14Q214.65 24.41 216.32 24.41Q218 24.41 219.07 24.14Q220.15 23.87 220.77 23.39Q221.27 23.01 221.52 22.51Q221.59 22.38 221.64 22.24ZM224.14 23.98Q224.3 24.14 224.64 24.14L232.3 24.14Q232.65 24.14 232.8 23.98Q232.95 23.83 232.95 23.49L232.95 21.35Q232.95 21 232.8 20.86Q232.65 20.7 232.3 20.7L230.56 20.7L230.56 14.65L232.3 14.65Q232.65 14.65 232.8 14.5Q232.95 14.35 232.95 14L232.95 11.82Q232.95 11.49 232.8 11.33Q232.65 11.18 232.3 11.18L224.64 11.18Q224.3 11.18 224.14 11.33Q223.99 11.49 223.99 11.82L223.99 14Q223.99 14.35 224.14 14.5Q224.3 14.65 224.64 14.65L226.42 14.65L226.42 20.7L224.64 20.7Q224.3 20.7 224.14 20.86Q223.99 21 223.99 21.35L223.99 23.49Q223.99 23.83 224.14 23.98ZM235.82 24.14L241.88 24.14Q244.13 24.14 245.22 23.24Q245.38 23.1 245.52 22.95Q246.31 22.06 246.31 20.46L246.31 14.85Q246.31 13.25 245.52 12.36Q245.38 12.21 245.22 12.08Q244.13 11.18 241.88 11.18L235.82 11.18Q235.47 11.18 235.32 11.33Q235.17 11.49 235.17 11.82L235.17 23.49Q235.17 23.83 235.32 23.98Q235.47 24.14 235.82 24.14ZM249.24 24.14L257.6 24.14Q257.94 24.14 258.09 23.98Q258.24 23.83 258.24 23.49L258.24 21.38Q258.24 21.04 258.09 20.89Q257.94 20.74 257.6 20.74L252.63 20.74L252.63 19.19L256.14 19.19Q256.48 19.19 256.63 19.04Q256.78 18.88 256.78 18.54L256.78 16.61Q256.78 16.27 256.63 16.12Q256.48 15.96 256.14 15.96L252.63 15.96L252.63 14.58L257.6 14.58Q257.94 14.58 258.09 14.43Q258.24 14.27 258.24 13.93L258.24 11.82Q258.24 11.49 258.09 11.33Q257.94 11.18 257.6 11.18L249.24 11.18Q248.9 11.18 248.75 11.33Q248.6 11.49 248.6 11.82L248.6 23.49Q248.6 23.83 248.75 23.98Q248.9 24.14 249.24 24.14ZM206.69 22.52L203.11 22.52Q202.12 22.52 201.49 22.39Q200.86 22.27 200.5 21.99Q200.32 21.85 200.2 21.68Q200.07 21.5 200 21.27Q199.87 20.82 199.87 20.2L199.87 15.16Q199.87 13.88 200.45 13.34Q201.02 12.8 202.75 12.8L205.86 12.8L205.86 12.98L202.75 12.98Q201.17 12.98 200.61 13.47Q200.05 13.97 200.05 15.16L200.05 20.2Q200.05 21.29 200.6 21.79Q200.63 21.82 200.67 21.85Q201.29 22.34 203.11 22.34L206.51 22.34L206.51 18.9L206.69 18.9L206.69 22.52ZM212.74 20.31L212.74 12.8L212.92 12.8L212.92 20.31Q212.92 20.9 213.17 21.37Q213.34 21.68 213.63 21.94Q214.34 22.56 216.34 22.56Q218.34 22.56 219.06 21.94Q219.36 21.67 219.54 21.34Q219.78 20.89 219.78 20.31L219.78 12.8L219.96 12.8L219.96 20.31Q219.96 20.94 219.69 21.44Q219.51 21.78 219.2 22.06Q218.45 22.74 216.34 22.74Q214.24 22.74 213.49 22.06Q213.19 21.79 213.01 21.45Q212.74 20.95 212.74 20.31ZM231.33 22.34L231.33 22.52L225.61 22.52L225.61 22.34L228.4 22.34L228.4 12.98L225.61 12.98L225.61 12.8L231.33 12.8L231.33 12.98L228.58 12.98L228.58 22.34L231.33 22.34ZM241.48 22.52L237.13 22.52L237.13 12.8L241.48 12.8Q242.4 12.8 242.97 13Q243.54 13.2 243.84 13.53Q243.94 13.64 244.02 13.76Q244.19 14.01 244.26 14.32Q244.37 14.78 244.37 15.3L244.37 20.07Q244.37 20.59 244.27 21.04Q244.21 21.31 244.08 21.53Q243.99 21.68 243.86 21.82Q243.55 22.14 242.98 22.33Q242.4 22.52 241.48 22.52ZM250.74 22.34L256.62 22.34L256.62 22.52L250.56 22.52L250.56 12.8L256.62 12.8L256.62 12.98L250.74 12.98L250.74 17.5L255.17 17.5L255.17 17.68L250.74 17.68L250.74 22.34ZM242.86 13.16Q242.33 12.98 241.48 12.98L237.31 12.98L237.31 22.34L241.48 22.34Q242.35 22.34 242.88 22.17Q243.41 22 243.7 21.7Q243.81 21.59 243.89 21.46Q244.02 21.25 244.09 20.98Q244.19 20.56 244.19 20.07L244.19 15.3Q244.19 14.81 244.08 14.38Q244.01 14.09 243.85 13.85Q243.77 13.74 243.68 13.64Q243.39 13.34 242.86 13.16ZM239.25 20.74L239.25 14.62L241.4 14.62Q241.83 14.62 242.03 14.82Q242.24 15.03 242.24 15.48L242.24 19.85Q242.24 20.31 242.03 20.52L242.03 20.52Q241.83 20.74 241.4 20.74L239.25 20.74Z" fill="#FDBF01" fill-opacity="1.000000" fill-rule="evenodd"/>
</svg>
