<svg width="62.291748" height="62.291504" viewBox="0 0 62.2917 62.2915" fill="none" xmlns="http://www.w3.org/2000/svg" xmlns:xlink="http://www.w3.org/1999/xlink">
	<desc>
			Created with Pixso.
	</desc>
	<defs/>
	<path id="Vector" d="M62.29 31.14C62.29 48.34 48.34 62.29 31.14 62.29C13.94 62.29 0 48.34 0 31.14C0 13.94 13.94 0 31.14 0C48.34 0 62.29 13.94 62.29 31.14Z" fill="#FFCE52" fill-opacity="1.000000" fill-rule="evenodd"/>
	<path id="Vector" d="M31.14 4.06C47.59 4.06 60.93 15.58 60.93 29.79L62.25 29.79C61.88 21.79 58.44 14.24 52.64 8.71C46.85 3.18 39.15 0.09 31.14 0.09C23.13 0.09 15.43 3.18 9.64 8.71C3.84 14.24 0.4 21.79 0.03 29.79L1.35 29.79C1.35 15.58 14.69 4.06 31.14 4.06Z" fill="#FFE369" fill-opacity="1.000000" fill-rule="nonzero"/>
	<path id="Vector" d="M60.93 29.79C60.93 44 47.59 55.52 31.14 55.52C14.69 55.52 1.35 44 1.35 29.79L0.03 29.79C0.01 30.24 0 30.69 0 31.14C0 39.4 3.28 47.32 9.12 53.16C14.96 59.01 22.88 62.29 31.14 62.29C39.4 62.29 47.32 59.01 53.16 53.16C59.01 47.32 62.29 39.4 62.29 31.14C62.29 30.69 62.27 30.24 62.25 29.79L60.93 29.79Z" fill="#FFB32B" fill-opacity="1.000000" fill-rule="nonzero"/>
	<path id="Vector" d="M49.54 10.06C50.14 10.66 50.28 11.51 49.85 11.95C49.41 12.38 48.56 12.24 47.96 11.64C47.35 11.03 47.21 10.18 47.65 9.75C48.08 9.31 48.93 9.45 49.54 10.06Z" fill="#F6FAFD" fill-opacity="1.000000" fill-rule="evenodd"/>
	<path id="Vector" d="M40.67 4.35C40.98 4.66 41.05 5.08 40.83 5.3C40.61 5.52 40.19 5.45 39.88 5.14C39.58 4.84 39.51 4.42 39.73 4.2C39.95 3.98 40.37 4.05 40.67 4.35Z" fill="#F6FAFD" fill-opacity="1.000000" fill-rule="evenodd"/>
	<path id="Vector" d="M46.27 6.56C47.48 7.77 47.76 9.46 46.89 10.34C46.01 11.21 44.32 10.93 43.11 9.72C41.89 8.5 41.61 6.81 42.49 5.94C43.36 5.07 45.05 5.34 46.27 6.56Z" fill="#F6FAFD" fill-opacity="1.000000" fill-rule="evenodd"/>
	<path id="Vector" d="M44.68 51.45C44.68 47.72 38.63 44.68 31.14 44.68C23.65 44.68 17.6 47.72 17.6 51.45L17.46 51.63C15.43 50.32 13.76 48.51 12.6 46.39C11.44 44.27 10.83 41.89 10.83 39.47C10.78 38.75 11.02 38.04 11.49 37.49C11.97 36.95 12.64 36.61 13.36 36.56C15.9 38.02 22.01 37.91 31.14 37.91C40.27 37.91 46.37 38.02 48.91 36.56C49.63 36.61 50.3 36.94 50.78 37.49C51.26 38.03 51.5 38.75 51.45 39.47C51.45 41.89 50.84 44.27 49.68 46.39C48.52 48.51 46.85 50.32 44.82 51.63L44.68 51.45Z" fill="#273941" fill-opacity="1.000000" fill-rule="nonzero"/>
	<path id="Vector" d="M44.68 51.45L44.82 51.63C40.75 54.26 35.99 55.62 31.14 55.52C26.3 55.62 21.53 54.26 17.46 51.63L17.6 51.45C17.6 47.72 23.65 44.68 31.14 44.68C38.63 44.68 44.68 47.72 44.68 51.45Z" fill="#AE2D4C" fill-opacity="1.000000" fill-rule="nonzero"/>
	<path id="Vector" d="M20.98 10.83C21.82 10.82 22.65 10.98 23.42 11.31C24.19 11.64 24.89 12.13 25.46 12.74C26.03 13.35 26.47 14.07 26.75 14.86C27.03 15.65 27.14 16.49 27.08 17.33C27.08 27.08 16.92 32.5 14.89 32.5C13.92 32.5 3.54 27.48 2.74 18.43C2.72 18.06 2.7 17.69 2.7 17.33C2.59 15.86 3.03 14.4 3.92 13.23C4.81 12.05 6.1 11.25 7.55 10.96C7.96 10.87 8.38 10.83 8.8 10.83C11.84 10.83 13.88 13 14.89 16.25C15.91 13 17.94 10.83 20.98 10.83Z" fill="#CF4054" fill-opacity="1.000000" fill-rule="nonzero"/>
	<path id="Vector" d="M59.58 17.33C59.58 17.69 59.56 18.06 59.54 18.43C58.82 27.48 49.34 32.5 47.39 32.5C46.38 32.5 35.2 27.08 35.2 17.33C35.14 16.49 35.25 15.65 35.53 14.86C35.81 14.07 36.25 13.35 36.82 12.74C37.39 12.13 38.09 11.64 38.86 11.31C39.63 10.98 40.46 10.82 41.3 10.83C44.34 10.83 46.38 13 47.39 16.25C48.41 13 50.44 10.83 53.48 10.83C53.9 10.83 54.32 10.87 54.73 10.96C56.18 11.25 57.47 12.05 58.36 13.23C59.26 14.4 59.69 15.86 59.58 17.33Z" fill="#CF4054" fill-opacity="1.000000" fill-rule="nonzero"/>
	<path id="Vector" d="M13.36 39.27C15.9 40.73 22.01 40.62 31.14 40.62C40.27 40.62 46.37 40.73 48.91 39.27C49.48 39.29 50.04 39.51 50.48 39.89C50.92 40.27 51.22 40.78 51.33 41.35C51.41 40.72 51.45 40.1 51.45 39.47C51.5 38.75 51.26 38.03 50.78 37.49C50.3 36.94 49.63 36.61 48.91 36.56C46.37 38.02 40.27 37.91 31.14 37.91C22.01 37.91 15.9 38.02 13.36 36.56C12.64 36.61 11.97 36.95 11.49 37.49C11.02 38.04 10.78 38.75 10.83 39.47C10.83 40.1 10.87 40.72 10.94 41.34C11.06 40.78 11.36 40.27 11.8 39.89C12.23 39.52 12.78 39.3 13.36 39.27Z" fill="#141E21" fill-opacity="1.000000" fill-rule="nonzero"/>
	<path id="Vector" d="M44.05 49.4C40.14 51.71 35.67 52.88 31.14 52.81C26.61 52.88 22.14 51.71 18.23 49.4C17.83 50.01 17.61 50.72 17.6 51.45L17.46 51.63C21.53 54.26 26.3 55.62 31.14 55.52C35.99 55.62 40.75 54.26 44.82 51.63L44.68 51.45C44.67 50.72 44.45 50.01 44.05 49.4Z" fill="#8A293D" fill-opacity="1.000000" fill-rule="nonzero"/>
	<path id="Vector" d="M47.39 32.49C46.43 32.49 36.38 27.63 35.31 18.84C35.25 19.24 35.21 19.64 35.2 20.04C35.2 29.79 46.38 35.2 47.39 35.2C49.34 35.2 58.82 30.19 59.54 21.13C59.57 20.76 59.58 20.4 59.58 20.04C59.58 19.62 59.55 19.21 59.48 18.81C58.53 27.62 49.31 32.49 47.39 32.49Z" fill="#FBB40A" fill-opacity="1.000000" fill-rule="nonzero"/>
	<path id="Vector" d="M14.89 32.49C13.93 32.49 3.88 27.63 2.81 18.84C2.75 19.24 2.71 19.64 2.7 20.04C2.7 29.79 13.88 35.2 14.89 35.2C16.84 35.2 26.32 30.19 27.04 21.13C27.07 20.76 27.08 20.4 27.08 20.04C27.08 19.62 27.05 19.21 26.98 18.81C26.03 27.62 16.81 32.49 14.89 32.49Z" fill="#FBB40A" fill-opacity="1.000000" fill-rule="nonzero"/>
	<path id="Vector" d="M53.48 10.83C50.44 10.83 48.41 13 47.39 16.25C48.18 13.81 49.76 12.18 52.13 12.18C52.77 12.16 53.41 12.28 54 12.52C54.59 12.76 55.13 13.12 55.57 13.58C56.02 14.04 56.36 14.58 56.59 15.18C56.81 15.78 56.91 16.42 56.87 17.06C56.87 24.37 48.97 28.43 47.39 28.43C46.63 28.43 38.56 24.67 37.94 17.88C37.92 17.61 37.91 17.33 37.91 17.06C37.84 15.94 38.19 14.83 38.88 13.95C39.58 13.07 40.58 12.48 41.68 12.28C42 12.21 42.33 12.18 42.65 12.18C45.02 12.18 46.6 13.81 47.39 16.25C46.38 13 44.34 10.83 41.3 10.83C40.88 10.83 40.46 10.87 40.05 10.96C38.6 11.25 37.31 12.05 36.42 13.23C35.53 14.4 35.09 15.86 35.2 17.33C35.2 17.69 35.22 18.06 35.24 18.43C36.04 27.48 46.42 32.5 47.39 32.5C49.42 32.5 59.58 27.08 59.58 17.33C59.64 16.49 59.53 15.65 59.25 14.86C58.97 14.07 58.53 13.35 57.96 12.74C57.39 12.13 56.69 11.64 55.92 11.31C55.15 10.98 54.32 10.82 53.48 10.83Z" fill="#AE2D4C" fill-opacity="1.000000" fill-rule="nonzero"/>
	<path id="Vector" d="M20.98 10.83C17.94 10.83 15.91 13 14.89 16.25C15.68 13.81 17.26 12.18 19.63 12.18C20.27 12.16 20.91 12.28 21.5 12.52C22.09 12.76 22.63 13.12 23.07 13.58C23.52 14.04 23.86 14.58 24.09 15.18C24.31 15.78 24.41 16.42 24.37 17.06C24.37 24.37 16.47 28.43 14.89 28.43C14.13 28.43 6.06 24.67 5.44 17.88C5.42 17.61 5.41 17.33 5.41 17.06C5.34 15.94 5.69 14.83 6.38 13.95C7.08 13.07 8.08 12.48 9.18 12.28C9.5 12.21 9.83 12.18 10.15 12.18C12.52 12.18 14.1 13.81 14.89 16.25C13.88 13 11.84 10.83 8.8 10.83C8.38 10.83 7.96 10.87 7.55 10.96C6.1 11.25 4.81 12.05 3.92 13.23C3.03 14.4 2.59 15.86 2.7 17.33C2.7 17.69 2.72 18.06 2.74 18.43C3.54 27.48 13.92 32.5 14.89 32.5C16.92 32.5 27.08 27.08 27.08 17.33C27.14 16.49 27.03 15.65 26.75 14.86C26.47 14.07 26.03 13.35 25.46 12.74C24.89 12.13 24.19 11.64 23.42 11.31C22.65 10.98 21.82 10.82 20.98 10.83Z" fill="#AE2D4C" fill-opacity="1.000000" fill-rule="nonzero"/>
	<path id="Vector" d="M56.31 15.48C56.92 16.08 57.05 16.93 56.62 17.37C56.18 17.8 55.34 17.66 54.73 17.06C54.12 16.45 53.98 15.6 54.42 15.17C54.86 14.73 55.7 14.87 56.31 15.48Z" fill="#F6FAFD" fill-opacity="1.000000" fill-rule="evenodd"/>
	<path id="Vector" d="M54.21 13.84C54.52 14.14 54.59 14.57 54.37 14.78C54.15 15 53.73 14.93 53.42 14.63C53.12 14.33 53.05 13.9 53.27 13.69C53.49 13.47 53.91 13.54 54.21 13.84Z" fill="#F6FAFD" fill-opacity="1.000000" fill-rule="evenodd"/>
	<path id="Vector" d="M23.8 15.47C24.41 16.07 24.55 16.92 24.11 17.35C23.68 17.79 22.83 17.65 22.22 17.05C21.62 16.44 21.48 15.59 21.91 15.16C22.35 14.72 23.2 14.86 23.8 15.47Z" fill="#F6FAFD" fill-opacity="1.000000" fill-rule="evenodd"/>
	<path id="Vector" d="M21.71 13.83C22.01 14.13 22.08 14.55 21.86 14.77C21.65 14.99 21.22 14.92 20.92 14.62C20.62 14.31 20.55 13.89 20.77 13.67C20.98 13.46 21.41 13.52 21.71 13.83Z" fill="#F6FAFD" fill-opacity="1.000000" fill-rule="evenodd"/>
</svg>
