<svg width="65.000000" height="65.000000" viewBox="0 0 65 65" fill="none" xmlns="http://www.w3.org/2000/svg" xmlns:xlink="http://www.w3.org/1999/xlink">
	<desc>
			Created with Pixso.
	</desc>
	<defs>
		<clipPath id="clip90_17831">
			<rect id="018-laughing 1" rx="-0.063477" width="64.873047" height="64.873047" transform="translate(0.063477 0.063477)" fill="white" fill-opacity="0"/>
		</clipPath>
	</defs>
	<rect id="018-laughing 1" rx="-0.063477" width="64.873047" height="64.873047" transform="translate(0.063477 0.063477)" fill="#FFFFFF" fill-opacity="0"/>
	<g clip-path="url(#clip90_17831)">
		<path id="Vector" d="M63.64 32.5C63.64 49.7 49.7 63.64 32.49 63.64C15.29 63.64 1.35 49.7 1.35 32.5C1.35 15.29 15.29 1.35 32.49 1.35C49.7 1.35 63.64 15.29 63.64 32.5Z" fill="#FFCE52" fill-opacity="1.000000" fill-rule="evenodd"/>
		<path id="Vector" d="M50.85 28.3C48.42 27.08 45.65 27.08 40.62 27.08C40.26 27.08 39.92 26.94 39.66 26.68C39.41 26.43 39.26 26.08 39.26 25.72C39.26 22.66 44.1 18.95 50.1 18.95L50.1 21.66C47.4 21.59 44.77 22.56 42.76 24.37C46.9 24.39 49.48 24.57 52.06 25.86L50.85 28.3Z" fill="#273941" fill-opacity="1.000000" fill-rule="nonzero"/>
		<path id="Vector" d="M14.14 28.3L12.93 25.87C15.5 24.59 18.09 24.41 22.23 24.38C20.22 22.57 17.59 21.6 14.89 21.66L14.89 18.95C20.89 18.95 25.72 22.66 25.72 25.72C25.72 26.08 25.58 26.43 25.33 26.68C25.07 26.94 24.73 27.08 24.37 27.08C19.34 27.08 16.56 27.08 14.14 28.3Z" fill="#273941" fill-opacity="1.000000" fill-rule="nonzero"/>
		<path id="Vector" d="M47.66 35.2L51.45 35.2C51.45 46.52 42.61 52.81 32.49 52.81C27.67 52.92 22.97 51.31 19.22 48.26C17.37 46.64 15.9 44.63 14.91 42.37C13.93 40.11 13.46 37.66 13.54 35.2L17.33 35.2C17.33 40.44 24.11 44.68 32.49 44.68C40.88 44.68 47.66 40.44 47.66 35.2Z" fill="#AE2D4C" fill-opacity="1.000000" fill-rule="nonzero"/>
		<path id="Vector" d="M17.33 35.2L47.66 35.2C47.66 40.44 40.88 44.68 32.49 44.68C24.11 44.68 17.33 40.44 17.33 35.2Z" fill="#F6FAFD" fill-opacity="1.000000" fill-rule="nonzero"/>
		<path id="Vector" d="M32.49 5.41C48.95 5.41 62.29 16.93 62.29 31.14L63.61 31.14C63.23 23.14 59.79 15.59 54 10.06C48.2 4.53 40.5 1.45 32.49 1.45C24.48 1.45 16.78 4.53 10.99 10.06C5.2 15.59 1.76 23.14 1.38 31.14L2.7 31.14C2.7 16.93 16.04 5.41 32.49 5.41Z" fill="#FFE369" fill-opacity="1.000000" fill-rule="nonzero"/>
		<path id="Vector" d="M62.29 31.14C62.29 45.35 48.95 56.87 32.49 56.87C16.04 56.87 2.7 45.35 2.7 31.14L1.38 31.14C1.36 31.59 1.35 32.04 1.35 32.5C1.35 40.76 4.63 48.68 10.47 54.52C16.31 60.36 24.23 63.64 32.49 63.64C40.75 63.64 48.68 60.36 54.52 54.52C60.36 48.68 63.64 40.76 63.64 32.5C63.64 32.04 63.63 31.59 63.61 31.14L62.29 31.14Z" fill="#FFB32B" fill-opacity="1.000000" fill-rule="nonzero"/>
		<path id="Vector" d="M50.89 11.41C51.5 12.02 51.64 12.86 51.2 13.3C50.76 13.74 49.92 13.6 49.31 12.99C48.7 12.38 48.57 11.54 49 11.1C49.44 10.67 50.28 10.8 50.89 11.41Z" fill="#F6FAFD" fill-opacity="1.000000" fill-rule="evenodd"/>
		<path id="Vector" d="M42.03 5.71C42.33 6.01 42.4 6.43 42.18 6.65C41.96 6.87 41.54 6.8 41.24 6.5C40.93 6.2 40.86 5.77 41.08 5.55C41.3 5.34 41.72 5.4 42.03 5.71Z" fill="#F6FAFD" fill-opacity="1.000000" fill-rule="evenodd"/>
		<path id="Vector" d="M47.62 7.91C48.83 9.13 49.11 10.82 48.24 11.69C47.37 12.56 45.67 12.29 44.46 11.07C43.25 9.86 42.97 8.16 43.84 7.29C44.71 6.42 46.41 6.7 47.62 7.91Z" fill="#F6FAFD" fill-opacity="1.000000" fill-rule="evenodd"/>
		<path id="Vector" d="M47.66 35.2C47.66 40.44 40.88 44.68 32.5 44.68C24.11 44.68 17.33 40.44 17.33 35.2L16.25 35.2C16.25 41.94 23.51 47.39 32.5 47.39C41.48 47.39 48.75 41.94 48.75 35.2L47.66 35.2Z" fill="#8A293D" fill-opacity="1.000000" fill-rule="nonzero"/>
		<path id="Vector" d="M47.66 35.2L17.33 35.2C17.33 36.14 17.55 37.07 17.96 37.91L47.03 37.91C47.44 37.07 47.65 36.14 47.66 35.2Z" fill="#EDEDED" fill-opacity="1.000000" fill-rule="nonzero"/>
		<path id="Vector" d="M62.35 30.37C63.17 31.2 63.64 32.32 63.64 33.49C63.64 34.66 63.17 35.79 62.35 36.62C61.52 37.45 60.39 37.91 59.22 37.91C58.05 37.91 56.93 37.45 56.1 36.62C54.37 34.89 52.19 28.02 52.97 27.24C53.75 26.46 60.62 28.64 62.35 30.37Z" fill="#3BC5F6" fill-opacity="1.000000" fill-rule="nonzero"/>
		<path id="Vector" d="M2.64 30.37C1.81 31.2 1.35 32.32 1.35 33.49C1.35 34.66 1.81 35.79 2.64 36.62C3.47 37.45 4.6 37.91 5.77 37.91C6.94 37.91 8.06 37.45 8.89 36.62C10.62 34.89 12.8 28.03 12.02 27.24C11.24 26.46 4.37 28.64 2.64 30.37Z" fill="#3BC5F6" fill-opacity="1.000000" fill-rule="nonzero"/>
		<path id="Vector" d="M62.35 30.37C60.83 28.85 55.34 26.98 53.51 27.08C55.83 27.36 58.05 28.2 59.96 29.54C60.58 30.17 60.93 31.01 60.93 31.89C60.93 32.77 60.58 33.61 59.96 34.23C59.34 34.85 58.5 35.2 57.62 35.2C56.74 35.2 55.9 34.85 55.27 34.23C53.93 32.32 53.08 30.1 52.81 27.78C52.71 29.61 54.57 35.1 56.09 36.62C56.5 37.04 56.99 37.37 57.53 37.6C58.07 37.83 58.64 37.95 59.23 37.96C59.82 37.96 60.4 37.85 60.94 37.63C61.48 37.4 61.97 37.08 62.39 36.66C62.8 36.25 63.13 35.76 63.35 35.21C63.57 34.67 63.69 34.09 63.68 33.5C63.68 32.92 63.56 32.34 63.33 31.8C63.1 31.26 62.76 30.77 62.34 30.37L62.35 30.37Z" fill="#00A3E1" fill-opacity="1.000000" fill-rule="nonzero"/>
		<path id="Vector" d="M5.03 34.23C4.72 33.92 4.48 33.56 4.31 33.16C4.14 32.75 4.06 32.32 4.06 31.89C4.06 31.45 4.14 31.02 4.31 30.62C4.48 30.22 4.72 29.85 5.03 29.54C6.94 28.2 9.16 27.35 11.48 27.08C9.65 26.98 4.16 28.84 2.64 30.36C1.83 31.19 1.39 32.31 1.39 33.47C1.4 34.63 1.87 35.74 2.69 36.57C3.51 37.39 4.62 37.85 5.78 37.86C6.94 37.87 8.06 37.42 8.89 36.61C10.41 35.1 12.28 29.61 12.18 27.78C11.91 30.1 11.06 32.32 9.72 34.23C9.41 34.54 9.05 34.79 8.64 34.95C8.24 35.12 7.81 35.21 7.37 35.21C6.94 35.21 6.51 35.12 6.1 34.95C5.7 34.79 5.34 34.54 5.03 34.23Z" fill="#00A3E1" fill-opacity="1.000000" fill-rule="nonzero"/>
		<path id="Vector" d="M61.72 30.38C62.33 30.98 62.46 31.83 62.03 32.27C61.59 32.7 60.75 32.56 60.14 31.96C59.53 31.35 59.39 30.5 59.83 30.07C60.27 29.63 61.11 29.77 61.72 30.38Z" fill="#F6FAFD" fill-opacity="1.000000" fill-rule="evenodd"/>
		<path id="Vector" d="M60.98 32.8C61.28 33.11 61.35 33.53 61.13 33.75C60.92 33.97 60.49 33.9 60.19 33.59C59.89 33.29 59.82 32.87 60.04 32.65C60.25 32.43 60.68 32.5 60.98 32.8Z" fill="#F6FAFD" fill-opacity="1.000000" fill-rule="evenodd"/>
		<path id="Vector" d="M5.16 30.03C5.6 30.47 5.46 31.31 4.85 31.92C4.24 32.53 3.4 32.67 2.96 32.23C2.52 31.79 2.66 30.95 3.27 30.34C3.88 29.73 4.72 29.59 5.16 30.03Z" fill="#F6FAFD" fill-opacity="1.000000" fill-rule="evenodd"/>
		<path id="Vector" d="M4.95 32.61C5.17 32.83 5.1 33.25 4.8 33.56C4.5 33.86 4.07 33.93 3.86 33.71C3.64 33.49 3.71 33.07 4.01 32.76C4.31 32.46 4.74 32.39 4.95 32.61Z" fill="#F6FAFD" fill-opacity="1.000000" fill-rule="evenodd"/>
		<path id="Vector" d="M56.1 36.62C54.65 34.6 53.63 32.31 53.11 29.88C53.06 29.89 53.01 29.92 52.97 29.95C52.19 30.73 54.37 37.6 56.1 39.33C56.63 39.86 57.3 40.25 58.02 40.45C58.75 40.65 59.52 40.66 60.25 40.48C60.72 39.46 61.11 38.39 61.42 37.31C60.58 37.8 59.6 37.99 58.64 37.87C57.68 37.74 56.78 37.3 56.1 36.62Z" fill="#FFC943" fill-opacity="1.000000" fill-rule="nonzero"/>
		<path id="Vector" d="M63.41 34.85C63.1 35.9 62.38 36.78 61.42 37.31C61.11 38.39 60.72 39.46 60.25 40.48C60.85 40.35 61.41 40.09 61.9 39.72C62.39 39.35 62.79 38.88 63.09 38.34C63.28 37.33 63.42 36.3 63.51 35.26C63.48 35.12 63.45 34.98 63.41 34.85Z" fill="#FFB32B" fill-opacity="1.000000" fill-rule="nonzero"/>
		<path id="Vector" d="M8.89 39.33C10.62 37.6 12.8 30.73 12.02 29.95C11.98 29.92 11.93 29.89 11.88 29.88C11.36 32.31 10.35 34.6 8.9 36.62C8.21 37.3 7.31 37.74 6.35 37.87C5.39 37.99 4.41 37.79 3.57 37.31C3.88 38.39 4.27 39.46 4.73 40.48C5.47 40.66 6.24 40.65 6.97 40.45C7.69 40.25 8.36 39.86 8.89 39.33Z" fill="#FFC943" fill-opacity="1.000000" fill-rule="nonzero"/>
		<path id="Vector" d="M4.73 40.48C4.27 39.46 3.88 38.39 3.57 37.31C2.6 36.78 1.89 35.9 1.58 34.85C1.53 34.98 1.5 35.12 1.47 35.25C1.56 36.3 1.71 37.33 1.9 38.34C2.19 38.87 2.6 39.34 3.09 39.71C3.58 40.08 4.14 40.35 4.73 40.48Z" fill="#FFB32B" fill-opacity="1.000000" fill-rule="nonzero"/>
	</g>
</svg>
