<svg width="65.000000" height="65.000000" viewBox="0 0 65 65" fill="none" xmlns="http://www.w3.org/2000/svg" xmlns:xlink="http://www.w3.org/1999/xlink">
	<desc>
			Created with Pixso.
	</desc>
	<defs>
		<clipPath id="clip90_17716">
			<rect id="009-disbelief 1" rx="-0.063477" width="64.873047" height="64.873047" transform="translate(0.063477 0.063477)" fill="white" fill-opacity="0"/>
		</clipPath>
	</defs>
	<rect id="009-disbelief 1" rx="-0.063477" width="64.873047" height="64.873047" transform="translate(0.063477 0.063477)" fill="#FFFFFF" fill-opacity="0"/>
	<g clip-path="url(#clip90_17716)">
		<path id="Vector" d="M63.64 32.5C63.64 49.7 49.7 63.64 32.49 63.64C15.29 63.64 1.35 49.7 1.35 32.5C1.35 15.29 15.29 1.35 32.49 1.35C49.7 1.35 63.64 15.29 63.64 32.5Z" fill="#FFCE52" fill-opacity="1.000000" fill-rule="evenodd"/>
		<path id="Vector" d="M51.45 36.56C51.45 41.05 42.98 44.68 32.49 44.68C22.01 44.68 13.54 41.05 13.54 36.56C18.28 37.72 28.04 37.91 32.49 37.91C38.84 37.84 45.17 37.39 51.45 36.56Z" fill="#F6FAFD" fill-opacity="1.000000" fill-rule="nonzero"/>
		<path id="Vector" d="M13.54 36.56C13.54 41.05 22.01 44.68 32.49 44.68C42.98 44.68 51.45 41.05 51.45 36.56C51.45 38.92 50.88 41.24 49.79 43.33C48.71 45.43 47.14 47.23 45.21 48.6C41.53 51.33 37.08 52.81 32.49 52.81C27.91 52.81 23.45 51.33 19.78 48.6C17.85 47.23 16.28 45.43 15.2 43.33C14.11 41.24 13.54 38.92 13.54 36.56Z" fill="#AE2D4C" fill-opacity="1.000000" fill-rule="nonzero"/>
		<path id="Vector" d="M41.97 28.43L39.26 28.43C39.26 26.86 40.95 21.66 44.68 21.66C48.41 21.66 50.1 26.86 50.1 28.43L47.39 28.43C47.39 27.61 46.19 24.37 44.68 24.37C43.17 24.37 41.97 27.61 41.97 28.43Z" fill="#273941" fill-opacity="1.000000" fill-rule="nonzero"/>
		<path id="Vector" d="M17.6 28.43L14.89 28.43C14.89 26.86 16.58 21.66 20.31 21.66C24.03 21.66 25.72 26.86 25.72 28.43L23.01 28.43C23.01 27.61 21.82 24.37 20.31 24.37C18.79 24.37 17.6 27.61 17.6 28.43Z" fill="#273941" fill-opacity="1.000000" fill-rule="nonzero"/>
		<path id="Vector" d="M14.89 20.31L14.89 17.6C19.93 17.6 23.01 15.85 23.01 14.89L25.72 14.89C25.72 18.45 20.27 20.31 14.89 20.31Z" fill="#273941" fill-opacity="1.000000" fill-rule="nonzero"/>
		<path id="Vector" d="M50.1 20.31C44.71 20.31 39.26 18.45 39.26 14.89L41.97 14.89C41.97 15.85 45.06 17.6 50.1 17.6L50.1 20.31Z" fill="#273941" fill-opacity="1.000000" fill-rule="nonzero"/>
		<path id="Vector" d="M32.49 5.41C48.95 5.41 62.29 16.93 62.29 31.14L63.61 31.14C63.23 23.14 59.79 15.59 54 10.06C48.2 4.53 40.5 1.45 32.49 1.45C24.48 1.45 16.78 4.53 10.99 10.06C5.2 15.59 1.76 23.14 1.38 31.14L2.7 31.14C2.7 16.93 16.04 5.41 32.49 5.41Z" fill="#FFE369" fill-opacity="1.000000" fill-rule="nonzero"/>
		<path id="Vector" d="M62.29 31.14C62.29 45.35 48.95 56.87 32.49 56.87C16.04 56.87 2.7 45.35 2.7 31.14L1.38 31.14C1.36 31.59 1.35 32.04 1.35 32.5C1.35 40.76 4.63 48.68 10.47 54.52C16.31 60.36 24.23 63.64 32.49 63.64C40.75 63.64 48.68 60.36 54.52 54.52C60.36 48.68 63.64 40.76 63.64 32.5C63.64 32.04 63.63 31.59 63.61 31.14L62.29 31.14Z" fill="#FFB32B" fill-opacity="1.000000" fill-rule="nonzero"/>
		<path id="Vector" d="M50.89 11.41C51.5 12.02 51.64 12.86 51.2 13.3C50.76 13.74 49.92 13.6 49.31 12.99C48.7 12.38 48.57 11.54 49 11.1C49.44 10.67 50.28 10.8 50.89 11.41Z" fill="#F6FAFD" fill-opacity="1.000000" fill-rule="evenodd"/>
		<path id="Vector" d="M42.03 5.71C42.33 6.01 42.4 6.43 42.18 6.65C41.96 6.87 41.54 6.8 41.24 6.5C40.93 6.2 40.86 5.77 41.08 5.55C41.3 5.34 41.72 5.4 42.03 5.71Z" fill="#F6FAFD" fill-opacity="1.000000" fill-rule="evenodd"/>
		<path id="Vector" d="M47.62 7.91C48.83 9.13 49.11 10.82 48.24 11.69C47.37 12.56 45.67 12.29 44.46 11.07C43.25 9.86 42.97 8.16 43.84 7.29C44.71 6.42 46.41 6.7 47.62 7.91Z" fill="#F6FAFD" fill-opacity="1.000000" fill-rule="evenodd"/>
		<path id="Vector" d="M50.24 39.4C50.98 38.63 51.41 37.62 51.45 36.56C45.17 37.39 38.84 37.84 32.49 37.91C28.04 37.91 18.28 37.72 13.54 36.56C13.59 37.68 14.06 38.75 14.87 39.54C20.71 40.33 26.6 40.69 32.49 40.62C38.43 40.57 44.36 40.16 50.24 39.4Z" fill="#EDEDED" fill-opacity="1.000000" fill-rule="nonzero"/>
		<path id="Vector" d="M51.16 37.94C49.62 41.78 41.87 44.68 32.49 44.68C23.15 44.68 15.41 41.79 13.84 37.98C13.77 37.96 13.69 37.95 13.62 37.93C13.66 38.36 13.72 38.78 13.79 39.2C15.23 43.08 23.03 46.04 32.49 46.04C41.95 46.04 49.76 43.08 51.19 39.2C51.27 38.78 51.33 38.36 51.37 37.92L51.16 37.94Z" fill="#8A293D" fill-opacity="1.000000" fill-rule="nonzero"/>
		<path id="Vector" d="M61.31 20.69C60.5 21.25 59.55 21.59 58.56 21.65C57.57 21.71 56.59 21.51 55.71 21.05C54.83 20.59 54.1 19.9 53.59 19.05C53.07 18.21 52.8 17.23 52.81 16.25C53.05 14.26 53.65 12.33 54.59 10.56C55.85 7.86 57.46 5.41 58.22 5.41C59.58 5.41 63.64 13.25 63.64 16.25C63.64 17.12 63.43 17.98 63.02 18.75C62.62 19.53 62.03 20.19 61.31 20.69Z" fill="#3BC5F6" fill-opacity="1.000000" fill-rule="nonzero"/>
		<path id="Vector" d="M52.84 16.54C52.82 16.76 52.81 16.96 52.81 17.15C52.81 21.14 55.23 24.37 58.22 24.37C59.2 24.35 60.15 24 60.91 23.39C60.65 22.69 60.36 22 60.04 21.33C59.46 21.55 58.84 21.66 58.22 21.66C56.84 21.66 55.51 21.13 54.51 20.18C53.51 19.22 52.91 17.92 52.84 16.54Z" fill="#FFB32B" fill-opacity="1.000000" fill-rule="nonzero"/>
		<path id="Vector" d="M61.31 23.07C61.54 22.85 61.75 22.62 61.95 22.37L61.87 22.14C61.74 21.78 61.6 21.42 61.46 21.06C61.42 20.95 61.38 20.85 61.34 20.74L61.31 20.68C60.92 20.95 60.49 21.17 60.04 21.33C60.36 22 60.65 22.68 60.91 23.38C61.04 23.29 61.18 23.19 61.31 23.07Z" fill="#FFCE52" fill-opacity="1.000000" fill-rule="nonzero"/>
		<path id="Vector" d="M58.22 5.41C57.46 5.41 55.85 7.86 54.59 10.56C53.65 12.33 53.05 14.26 52.81 16.25C52.81 17.68 53.38 19.06 54.39 20.08C55.41 21.09 56.79 21.66 58.22 21.66C59.66 21.66 61.04 21.09 62.05 20.08C63.07 19.06 63.64 17.68 63.64 16.25C63.64 13.25 59.58 5.41 58.22 5.41ZM60.54 16.95C59.84 17.38 59.04 17.6 58.22 17.6C57.21 17.66 56.21 17.31 55.45 16.63C54.68 15.96 54.22 15 54.16 13.99C54.35 12.65 54.8 11.36 55.5 10.2C56.44 8.4 57.65 6.77 58.22 6.77C59.24 6.77 62.28 11.99 62.28 13.99C62.27 14.59 62.11 15.18 61.8 15.7C61.49 16.22 61.06 16.65 60.54 16.95Z" fill="#00A3E1" fill-opacity="1.000000" fill-rule="nonzero"/>
		<path id="Vector" d="M61.73 14.12C62.33 14.73 62.47 15.58 62.03 16.01C61.6 16.45 60.75 16.31 60.15 15.7C59.54 15.1 59.4 14.25 59.84 13.81C60.27 13.38 61.12 13.52 61.73 14.12Z" fill="#F6FAFD" fill-opacity="1.000000" fill-rule="evenodd"/>
		<path id="Vector" d="M60.99 11.13C61.29 11.44 61.36 11.86 61.14 12.08C60.92 12.3 60.5 12.23 60.2 11.92C59.89 11.62 59.82 11.2 60.04 10.98C60.26 10.76 60.68 10.83 60.99 11.13Z" fill="#F6FAFD" fill-opacity="1.000000" fill-rule="evenodd"/>
	</g>
</svg>
