<svg width="65.000000" height="65.000000" viewBox="0 0 65 65" fill="none" xmlns="http://www.w3.org/2000/svg" xmlns:xlink="http://www.w3.org/1999/xlink">
	<desc>
			Created with Pixso.
	</desc>
	<defs>
		<clipPath id="clip90_17739">
			<rect id="006-lol 1" rx="-0.063477" width="64.873047" height="64.873047" transform="translate(0.063477 0.063477)" fill="white" fill-opacity="0"/>
		</clipPath>
	</defs>
	<rect id="006-lol 1" rx="-0.063477" width="64.873047" height="64.873047" transform="translate(0.063477 0.063477)" fill="#FFFFFF" fill-opacity="0"/>
	<g clip-path="url(#clip90_17739)">
		<path id="Vector" d="M63.64 32.5C63.64 49.7 49.7 63.64 32.49 63.64C15.29 63.64 1.35 49.7 1.35 32.5C1.35 15.29 15.29 1.35 32.49 1.35C49.7 1.35 63.64 15.29 63.64 32.5Z" fill="#FFCE52" fill-opacity="1.000000" fill-rule="evenodd"/>
		<path id="Vector" d="M50.08 36.83C50.94 36.75 51.84 36.65 52.81 36.56C52.78 38.96 52.15 41.32 50.98 43.42C49.81 45.52 48.14 47.3 46.12 48.6C42.1 51.34 37.35 52.81 32.49 52.81C27.63 52.81 22.88 51.34 18.87 48.6C16.84 47.3 15.17 45.52 14.01 43.42C12.84 41.32 12.21 38.96 12.18 36.56C12.98 36.73 13.9 36.9 14.92 37.03C15.36 42.06 23.05 46.04 32.49 46.04C42.07 46.04 49.83 41.95 50.08 36.83Z" fill="#AE2D4C" fill-opacity="1.000000" fill-rule="nonzero"/>
		<path id="Vector" d="M50.09 36.83C49.83 41.95 42.07 46.04 32.5 46.04C23.06 46.04 15.37 42.06 14.92 37.03C20.76 37.66 26.62 37.96 32.5 37.91C38.37 37.87 44.25 37.51 50.09 36.83Z" fill="#F6FAFD" fill-opacity="1.000000" fill-rule="nonzero"/>
		<path id="Vector" d="M50.1 28.43L47.39 28.43C47.39 26.31 45.84 21.66 44.68 21.66C43.52 21.66 41.97 26.31 41.97 28.43L39.26 28.43C39.26 27.31 40.41 18.95 44.68 18.95C48.95 18.95 50.1 27.31 50.1 28.43Z" fill="#273941" fill-opacity="1.000000" fill-rule="nonzero"/>
		<path id="Vector" d="M25.72 28.43L23.01 28.43C23.01 26.31 21.47 21.66 20.31 21.66C19.14 21.66 17.6 26.31 17.6 28.43L14.89 28.43C14.89 27.31 16.03 18.95 20.31 18.95C24.58 18.95 25.72 27.31 25.72 28.43Z" fill="#273941" fill-opacity="1.000000" fill-rule="nonzero"/>
		<path id="Vector" d="M32.49 5.41C48.95 5.41 62.29 16.93 62.29 31.14L63.61 31.14C63.23 23.14 59.79 15.59 54 10.06C48.2 4.53 40.5 1.45 32.49 1.45C24.48 1.45 16.78 4.53 10.99 10.06C5.2 15.59 1.76 23.14 1.38 31.14L2.7 31.14C2.7 16.93 16.04 5.41 32.49 5.41Z" fill="#FFE369" fill-opacity="1.000000" fill-rule="nonzero"/>
		<path id="Vector" d="M62.29 31.14C62.29 45.35 48.95 56.87 32.49 56.87C16.04 56.87 2.7 45.35 2.7 31.14L1.38 31.14C1.36 31.59 1.35 32.04 1.35 32.5C1.35 40.76 4.63 48.68 10.47 54.52C16.31 60.36 24.23 63.64 32.49 63.64C40.75 63.64 48.68 60.36 54.52 54.52C60.36 48.68 63.64 40.76 63.64 32.5C63.64 32.04 63.63 31.59 63.61 31.14L62.29 31.14Z" fill="#FFB32B" fill-opacity="1.000000" fill-rule="nonzero"/>
		<path id="Vector" d="M50.89 11.41C51.5 12.02 51.64 12.86 51.2 13.3C50.76 13.74 49.92 13.6 49.31 12.99C48.7 12.38 48.57 11.54 49 11.1C49.44 10.67 50.28 10.8 50.89 11.41Z" fill="#F6FAFD" fill-opacity="1.000000" fill-rule="evenodd"/>
		<path id="Vector" d="M42.03 5.71C42.33 6.01 42.4 6.43 42.18 6.65C41.96 6.87 41.54 6.8 41.24 6.5C40.93 6.2 40.86 5.77 41.08 5.55C41.3 5.34 41.72 5.4 42.03 5.71Z" fill="#F6FAFD" fill-opacity="1.000000" fill-rule="evenodd"/>
		<path id="Vector" d="M47.62 7.91C48.83 9.13 49.11 10.82 48.24 11.69C47.37 12.56 45.67 12.29 44.46 11.07C43.24 9.86 42.97 8.16 43.84 7.29C44.71 6.42 46.4 6.7 47.62 7.91Z" fill="#F6FAFD" fill-opacity="1.000000" fill-rule="evenodd"/>
		<path id="Vector" d="M49.15 39.63C49.7 38.79 50.02 37.83 50.09 36.83C44.25 37.51 38.37 37.87 32.5 37.91C26.62 37.96 20.76 37.66 14.92 37.03C15.03 38.06 15.41 39.04 16.01 39.88C21.49 40.4 26.99 40.65 32.5 40.62C38.06 40.59 43.62 40.25 49.15 39.63Z" fill="#EDEDED" fill-opacity="1.000000" fill-rule="nonzero"/>
		<path id="Vector" d="M32.49 48.75C42.75 48.75 51.06 43.4 51.44 36.69L50.09 36.83C49.83 41.95 42.07 46.04 32.49 46.04C23.06 46.04 15.37 42.06 14.92 37.03C14.44 36.97 13.98 36.9 13.54 36.83C14.02 43.48 22.31 48.75 32.49 48.75Z" fill="#8A293D" fill-opacity="1.000000" fill-rule="nonzero"/>
	</g>
</svg>
