<svg width="65.000000" height="65.000000" viewBox="0 0 65 65" fill="none" xmlns="http://www.w3.org/2000/svg" xmlns:xlink="http://www.w3.org/1999/xlink">
	<desc>
			Created with Pixso.
	</desc>
	<defs>
		<clipPath id="clip90_17754">
			<rect id="002-smile 1" rx="-0.063477" width="64.873047" height="64.873047" transform="translate(0.063477 0.063477)" fill="white" fill-opacity="0"/>
		</clipPath>
	</defs>
	<rect id="002-smile 1" rx="-0.063477" width="64.873047" height="64.873047" transform="translate(0.063477 0.063477)" fill="#FFFFFF" fill-opacity="0"/>
	<g clip-path="url(#clip90_17754)">
		<path id="Vector" d="M63.64 32.5C63.64 49.7 49.7 63.64 32.5 63.64C15.29 63.64 1.35 49.7 1.35 32.5C1.35 15.29 15.29 1.35 32.5 1.35C49.7 1.35 63.64 15.29 63.64 32.5Z" fill="#FFCE52" fill-opacity="1.000000" fill-rule="evenodd"/>
		<path id="Vector" d="M48.75 24.37C48.75 27.36 46.93 29.79 44.68 29.79C42.44 29.79 40.62 27.36 40.62 24.37C40.62 21.38 42.44 18.95 44.68 18.95C46.93 18.95 48.75 21.38 48.75 24.37Z" fill="#273941" fill-opacity="1.000000" fill-rule="evenodd"/>
		<path id="Vector" d="M24.37 24.37C24.37 27.36 22.55 29.79 20.31 29.79C18.07 29.79 16.25 27.36 16.25 24.37C16.25 21.38 18.07 18.95 20.31 18.95C22.55 18.95 24.37 21.38 24.37 24.37Z" fill="#273941" fill-opacity="1.000000" fill-rule="evenodd"/>
		<path id="Vector" d="M47.39 24.37C47.39 26.61 46.18 28.43 44.68 28.43C43.19 28.43 41.98 26.61 41.98 24.37C41.98 22.13 43.19 20.31 44.68 20.31C46.18 20.31 47.39 22.13 47.39 24.37Z" fill="#141E21" fill-opacity="1.000000" fill-rule="evenodd"/>
		<path id="Vector" d="M23.02 24.37C23.02 26.61 21.8 28.43 20.31 28.43C18.81 28.43 17.6 26.61 17.6 24.37C17.6 22.13 18.81 20.31 20.31 20.31C21.8 20.31 23.02 22.13 23.02 24.37Z" fill="#141E21" fill-opacity="1.000000" fill-rule="evenodd"/>
		<path id="Vector" d="M47.39 23.02C47.39 23.76 46.79 24.37 46.04 24.37C45.29 24.37 44.68 23.76 44.68 23.02C44.68 22.27 45.29 21.66 46.04 21.66C46.79 21.66 47.39 22.27 47.39 23.02Z" fill="#F6FAFD" fill-opacity="1.000000" fill-rule="evenodd"/>
		<path id="Vector" d="M23.02 23.02C23.02 23.76 22.41 24.37 21.66 24.37C20.92 24.37 20.31 23.76 20.31 23.02C20.31 22.27 20.92 21.66 21.66 21.66C22.41 21.66 23.02 22.27 23.02 23.02Z" fill="#F6FAFD" fill-opacity="1.000000" fill-rule="evenodd"/>
		<path id="Vector" d="M32.5 52.81C22.04 52.81 13.54 44.91 13.54 35.2L16.25 35.2C16.25 43.42 23.54 50.1 32.5 50.1C41.46 50.1 48.75 43.42 48.75 35.2L51.45 35.2C51.45 44.91 42.95 52.81 32.5 52.81Z" fill="#273941" fill-opacity="1.000000" fill-rule="nonzero"/>
		<path id="Vector" d="M32.5 5.41C48.95 5.41 62.29 16.93 62.29 31.14L63.61 31.14C63.23 23.14 59.79 15.59 54 10.06C48.21 4.53 40.5 1.45 32.5 1.45C24.49 1.45 16.79 4.53 10.99 10.06C5.2 15.59 1.76 23.14 1.38 31.14L2.7 31.14C2.7 16.93 16.04 5.41 32.5 5.41Z" fill="#FFE369" fill-opacity="1.000000" fill-rule="nonzero"/>
		<path id="Vector" d="M62.29 31.14C62.29 45.35 48.95 56.87 32.5 56.87C16.04 56.87 2.7 45.35 2.7 31.14L1.38 31.14C1.37 31.59 1.35 32.04 1.35 32.5C1.35 40.76 4.63 48.68 10.47 54.52C16.31 60.36 24.24 63.64 32.5 63.64C40.76 63.64 48.68 60.36 54.52 54.52C60.36 48.68 63.64 40.76 63.64 32.5C63.64 32.04 63.63 31.59 63.61 31.14L62.29 31.14Z" fill="#FFB32B" fill-opacity="1.000000" fill-rule="nonzero"/>
		<path id="Vector" d="M50.89 11.41C51.5 12.02 51.64 12.86 51.2 13.3C50.77 13.74 49.92 13.6 49.31 12.99C48.71 12.38 48.57 11.54 49.01 11.1C49.44 10.67 50.29 10.8 50.89 11.41Z" fill="#F6FAFD" fill-opacity="1.000000" fill-rule="evenodd"/>
		<path id="Vector" d="M42.03 5.71C42.33 6.01 42.4 6.43 42.18 6.65C41.97 6.87 41.54 6.8 41.24 6.5C40.94 6.2 40.87 5.77 41.09 5.55C41.3 5.34 41.73 5.4 42.03 5.71Z" fill="#F6FAFD" fill-opacity="1.000000" fill-rule="evenodd"/>
		<path id="Vector" d="M47.62 7.91C48.84 9.13 49.11 10.82 48.24 11.69C47.37 12.56 45.68 12.29 44.46 11.07C43.25 9.86 42.97 8.16 43.84 7.29C44.72 6.42 46.41 6.7 47.62 7.91Z" fill="#F6FAFD" fill-opacity="1.000000" fill-rule="evenodd"/>
	</g>
</svg>
