<svg width="65.000000" height="65.000000" viewBox="0 0 65 65" fill="none" xmlns="http://www.w3.org/2000/svg" xmlns:xlink="http://www.w3.org/1999/xlink">
	<desc>
			Created with Pixso.
	</desc>
	<defs>
		<clipPath id="clip90_17770">
			<rect id="028-angry 1" rx="-0.063477" width="64.873047" height="64.873047" transform="translate(0.063477 0.063477)" fill="white" fill-opacity="0"/>
		</clipPath>
	</defs>
	<rect id="028-angry 1" rx="-0.063477" width="64.873047" height="64.873047" transform="translate(0.063477 0.063477)" fill="#FFFFFF" fill-opacity="0"/>
	<g clip-path="url(#clip90_17770)">
		<path id="Vector" d="M63.64 32.5C63.64 49.7 49.69 63.64 32.49 63.64C15.29 63.64 1.35 49.7 1.35 32.5C1.35 15.29 15.29 1.35 32.49 1.35C49.69 1.35 63.64 15.29 63.64 32.5Z" fill="#CF4054" fill-opacity="1.000000" fill-rule="evenodd"/>
		<path id="Vector" d="M32.49 5.41C48.94 5.41 62.28 16.93 62.28 31.14L63.6 31.14C63.23 23.14 59.79 15.59 54 10.06C48.2 4.53 40.5 1.45 32.49 1.45C24.48 1.45 16.78 4.53 10.99 10.06C5.19 15.59 1.75 23.14 1.38 31.14L2.7 31.14C2.7 16.93 16.04 5.41 32.49 5.41Z" fill="#F45269" fill-opacity="1.000000" fill-rule="nonzero"/>
		<path id="Vector" d="M62.28 31.14C62.28 45.35 48.95 56.87 32.49 56.87C16.04 56.87 2.7 45.35 2.7 31.14L1.38 31.14C1.36 31.59 1.35 32.04 1.35 32.5C1.35 40.76 4.63 48.68 10.47 54.52C16.31 60.36 24.23 63.64 32.49 63.64C40.75 63.64 48.67 60.36 54.52 54.52C60.36 48.68 63.64 40.76 63.64 32.5C63.64 32.04 63.62 31.59 63.6 31.14L62.28 31.14Z" fill="#AE2D4C" fill-opacity="1.000000" fill-rule="nonzero"/>
		<path id="Vector" d="M50.21 10.73C50.82 11.34 50.96 12.19 50.52 12.62C50.09 13.06 49.24 12.92 48.63 12.31C48.03 11.71 47.89 10.86 48.32 10.43C48.76 9.99 49.61 10.13 50.21 10.73Z" fill="#F6FAFD" fill-opacity="1.000000" fill-rule="evenodd"/>
		<path id="Vector" d="M41.35 5.03C41.65 5.33 41.72 5.76 41.51 5.98C41.29 6.19 40.86 6.13 40.56 5.82C40.26 5.52 40.19 5.1 40.41 4.88C40.62 4.66 41.05 4.73 41.35 5.03Z" fill="#F6FAFD" fill-opacity="1.000000" fill-rule="evenodd"/>
		<path id="Vector" d="M46.94 7.23C48.16 8.45 48.43 10.14 47.56 11.01C46.69 11.89 45 11.61 43.78 10.39C42.57 9.18 42.29 7.49 43.16 6.62C44.03 5.74 45.73 6.02 46.94 7.23Z" fill="#F6FAFD" fill-opacity="1.000000" fill-rule="evenodd"/>
		<path id="Vector" d="M46.04 33.85C46.04 35.35 39.97 36.56 32.49 36.56C25.02 36.56 18.95 35.35 18.95 33.85C18.95 32.35 25.02 31.14 32.49 31.14C39.97 31.14 46.04 32.35 46.04 33.85Z" fill="#AE2D4C" fill-opacity="1.000000" fill-rule="evenodd"/>
		<path id="Vector" d="M53.41 22.88L52.2 20.46L45.52 23.8L41.56 25.78L41.37 25.87L41.39 25.91C41.13 26.09 40.94 26.35 40.85 26.66C40.7 27.24 40.62 27.83 40.62 28.43C40.62 31.47 42.4 33.85 44.68 33.85C46.96 33.85 48.74 31.47 48.74 28.43C48.74 27.43 48.52 26.44 48.09 25.53L53.41 22.88Z" fill="#141E21" fill-opacity="1.000000" fill-rule="nonzero"/>
		<path id="Vector" d="M23.6 25.91L23.62 25.87L23.43 25.77L19.47 23.79L12.79 20.45L11.58 22.88L16.9 25.54C16.47 26.45 16.25 27.43 16.24 28.43C16.24 31.47 18.03 33.85 20.31 33.85C22.58 33.85 24.37 31.47 24.37 28.43C24.37 27.83 24.29 27.23 24.14 26.65C24.05 26.35 23.86 26.08 23.6 25.91Z" fill="#141E21" fill-opacity="1.000000" fill-rule="nonzero"/>
		<path id="Vector" d="M22.82 26.98C22.95 27.46 23.01 27.94 23.01 28.43C23.01 30.68 21.79 32.5 20.3 32.5C18.81 32.5 17.6 30.68 17.6 28.43C17.57 27.81 17.67 27.18 17.89 26.59C18.11 26 18.44 25.47 18.87 25.01L22.82 26.98Z" fill="#273941" fill-opacity="1.000000" fill-rule="nonzero"/>
		<path id="Vector" d="M47.39 28.43C47.39 30.68 46.17 32.5 44.68 32.5C43.19 32.5 41.97 30.68 41.97 28.43C41.97 27.94 42.03 27.46 42.16 26.98L46.12 25.01C46.54 25.47 46.88 26 47.09 26.59C47.31 27.18 47.41 27.81 47.39 28.43Z" fill="#273941" fill-opacity="1.000000" fill-rule="nonzero"/>
		<path id="Vector" d="M41.97 48.75L39.26 48.75C39.26 46.29 36.24 43.33 32.49 43.33C28.74 43.33 25.72 46.29 25.72 48.75L23.01 48.75C23.01 44.91 27.07 40.62 32.49 40.62C37.92 40.62 41.97 44.91 41.97 48.75Z" fill="#141E21" fill-opacity="1.000000" fill-rule="nonzero"/>
	</g>
</svg>
