<svg width="65.000000" height="65.000000" viewBox="0 0 65 65" fill="none" xmlns="http://www.w3.org/2000/svg" xmlns:xlink="http://www.w3.org/1999/xlink">
	<desc>
			Created with Pixso.
	</desc>
	<defs>
		<clipPath id="clip90_17785">
			<rect id="026-puke 1" rx="-0.063477" width="64.873047" height="64.873047" transform="translate(0.063477 0.063477)" fill="white" fill-opacity="0"/>
		</clipPath>
		<radialGradient gradientTransform="translate(32.5044 28.438) rotate(0) scale(21.6694 9.48188)" cx="0.000000" cy="0.000000" r="1.000000" id="paint_radial_90_17793_0" gradientUnits="userSpaceOnUse">
			<stop stop-color="#63B300"/>
			<stop offset="0.130000" stop-color="#7AB80F"/>
			<stop offset="0.547000" stop-color="#C1C63D"/>
			<stop offset="0.848000" stop-color="#EED059"/>
			<stop offset="1.000000" stop-color="#FFD364"/>
		</radialGradient>
	</defs>
	<rect id="026-puke 1" rx="-0.063477" width="64.873047" height="64.873047" transform="translate(0.063477 0.063477)" fill="#FFFFFF" fill-opacity="0"/>
	<g clip-path="url(#clip90_17785)">
		<path id="Vector" d="M63.64 32.5C63.64 49.7 49.7 63.64 32.49 63.64C15.29 63.64 1.35 49.7 1.35 32.5C1.35 15.29 15.29 1.35 32.49 1.35C49.7 1.35 63.64 15.29 63.64 32.5Z" fill="#FFCE52" fill-opacity="1.000000" fill-rule="evenodd"/>
		<path id="Vector" d="M32.49 5.41C48.95 5.41 62.29 16.93 62.29 31.14L63.61 31.14C63.23 23.14 59.79 15.59 54 10.06C48.2 4.53 40.5 1.45 32.49 1.45C24.48 1.45 16.78 4.53 10.99 10.06C5.2 15.59 1.76 23.14 1.38 31.14L2.7 31.14C2.7 16.93 16.04 5.41 32.49 5.41Z" fill="#FFE369" fill-opacity="1.000000" fill-rule="nonzero"/>
		<path id="Vector" d="M62.29 31.14C62.29 45.35 48.95 56.87 32.49 56.87C16.04 56.87 2.7 45.35 2.7 31.14L1.38 31.14C1.36 31.59 1.35 32.04 1.35 32.5C1.35 40.76 4.63 48.68 10.47 54.52C16.31 60.36 24.23 63.64 32.49 63.64C40.75 63.64 48.68 60.36 54.52 54.52C60.36 48.68 63.64 40.76 63.64 32.5C63.64 32.04 63.63 31.59 63.61 31.14L62.29 31.14Z" fill="#FFB32B" fill-opacity="1.000000" fill-rule="nonzero"/>
		<path id="Vector" d="M50.89 11.41C51.5 12.02 51.64 12.86 51.2 13.3C50.76 13.74 49.92 13.6 49.31 12.99C48.7 12.38 48.57 11.54 49 11.1C49.44 10.67 50.28 10.8 50.89 11.41Z" fill="#F6FAFD" fill-opacity="1.000000" fill-rule="evenodd"/>
		<path id="Vector" d="M42.03 5.71C42.33 6.01 42.4 6.43 42.18 6.65C41.96 6.87 41.54 6.8 41.24 6.5C40.93 6.2 40.86 5.77 41.08 5.55C41.3 5.34 41.72 5.4 42.03 5.71Z" fill="#F6FAFD" fill-opacity="1.000000" fill-rule="evenodd"/>
		<path id="Vector" d="M47.62 7.91C48.83 9.13 49.11 10.82 48.24 11.69C47.37 12.56 45.67 12.29 44.46 11.07C43.25 9.86 42.97 8.16 43.84 7.29C44.71 6.42 46.41 6.7 47.62 7.91Z" fill="#F6FAFD" fill-opacity="1.000000" fill-rule="evenodd"/>
		<path id="Vector" d="M54.16 28.43C54.16 33.67 44.46 37.91 32.49 37.91C20.53 37.91 10.83 33.67 10.83 28.43C10.83 23.2 20.53 18.95 32.49 18.95C44.46 18.95 54.16 23.2 54.16 28.43Z" fill="url(#paint_radial_90_17793_0)" fill-opacity="1.000000" fill-rule="evenodd"/>
		<path id="Vector" d="M50.1 40.62C50.1 45.86 42.22 50.1 32.49 50.1C22.77 50.1 14.89 45.86 14.89 40.62C14.89 35.39 22.77 31.14 32.49 31.14C42.22 31.14 50.1 35.39 50.1 40.62Z" fill="#273941" fill-opacity="1.000000" fill-rule="evenodd"/>
		<path id="Vector" d="M12.99 56.78C13.43 56.36 13.93 56.03 14.49 55.82C15.05 55.6 15.65 55.5 16.24 55.52C17.07 55.45 17.89 55.65 18.59 56.07C19.3 56.49 19.86 57.12 20.2 57.87C20.66 57.66 21.16 57.54 21.66 57.55C22.33 57.54 22.98 57.74 23.53 58.12C23.96 57.6 24.5 57.19 25.12 56.91C25.73 56.64 26.4 56.51 27.08 56.53C27.75 56.51 28.42 56.64 29.04 56.91C29.65 57.19 30.19 57.6 30.63 58.12C31.18 57.75 31.83 57.55 32.49 57.55C33.16 57.55 33.81 57.75 34.36 58.12C34.81 57.62 35.36 57.22 35.97 56.95C36.58 56.67 37.24 56.53 37.91 56.53C38.58 56.53 39.24 56.67 39.85 56.95C40.47 57.22 41.01 57.62 41.46 58.12C42.01 57.74 42.66 57.54 43.33 57.55C43.41 57.55 43.49 57.56 43.57 57.56C43.96 56.9 44.52 56.36 45.19 56C45.87 55.64 46.63 55.47 47.39 55.52C47.83 55.51 48.28 55.57 48.7 55.69C49.52 55.87 50.26 56.31 50.82 56.94C51.27 56.74 51.76 56.61 52.25 56.56L52.27 56.56C52.44 56.54 52.62 56.53 52.81 56.53C53.43 56.51 54.06 56.62 54.64 56.86C55.23 57.09 55.75 57.45 56.19 57.9C56.63 57.45 57.16 57.09 57.74 56.86C58.32 56.62 58.95 56.51 59.58 56.53C61.83 56.53 63.64 57.9 63.64 59.58L63.64 63.64L1.35 63.64L1.35 59.58C1.35 58.45 2.57 57.55 4.06 57.55C4.72 57.54 5.38 57.74 5.93 58.12C6.36 57.6 6.9 57.19 7.52 56.91C8.13 56.64 8.8 56.51 9.47 56.53C10.55 56.51 11.59 56.86 12.44 57.52C12.58 57.24 12.77 56.99 12.99 56.78Z" fill="#78B300" fill-opacity="1.000000" fill-rule="nonzero"/>
		<path id="Vector" d="M46.59 46.29C47.11 49.95 47.93 54.7 48.75 55.52L48.7 55.69C48.28 55.57 47.83 55.51 47.39 55.52C46.63 55.47 45.87 55.64 45.19 56C44.52 56.36 43.96 56.9 43.57 57.56C43.49 57.56 43.41 57.55 43.33 57.55C42.66 57.54 42.01 57.74 41.46 58.12C41.01 57.62 40.47 57.22 39.85 56.95C39.24 56.67 38.58 56.53 37.91 56.53C37.24 56.53 36.58 56.67 35.97 56.95C35.36 57.22 34.81 57.62 34.36 58.12C33.81 57.75 33.16 57.55 32.5 57.55C31.83 57.55 31.18 57.75 30.63 58.12C30.2 57.6 29.65 57.19 29.04 56.91C28.42 56.64 27.75 56.51 27.08 56.53C26.41 56.51 25.74 56.64 25.12 56.91C24.51 57.19 23.96 57.6 23.53 58.12C22.98 57.74 22.33 57.54 21.66 57.55C21.16 57.54 20.66 57.66 20.2 57.87C19.86 57.12 19.3 56.49 18.59 56.07C17.89 55.65 17.07 55.45 16.25 55.52C17.06 54.7 17.88 49.95 18.4 46.29C18.74 43.9 18.95 41.97 18.95 41.97L18.95 40.62C18.95 39.54 19.38 38.51 20.14 37.75C20.91 36.99 21.94 36.56 23.02 36.56L41.97 36.56C43.05 36.56 44.08 36.99 44.85 37.75C45.61 38.51 46.04 39.54 46.04 40.62L46.04 41.97C46.04 41.97 46.25 43.9 46.59 46.29Z" fill="#4F813B" fill-opacity="1.000000" fill-rule="nonzero"/>
		<path id="Vector" d="M50.85 28.3C48.42 27.08 45.65 27.08 40.62 27.08C40.26 27.08 39.91 26.94 39.66 26.68C39.41 26.43 39.26 26.08 39.26 25.72C39.26 22.66 44.1 18.95 50.1 18.95L50.1 21.66C47.4 21.59 44.77 22.56 42.76 24.37C46.9 24.39 49.48 24.57 52.06 25.86L50.85 28.3Z" fill="#273941" fill-opacity="1.000000" fill-rule="nonzero"/>
		<path id="Vector" d="M14.14 28.3L12.93 25.87C15.5 24.59 18.09 24.41 22.23 24.38C20.22 22.57 17.59 21.6 14.89 21.66L14.89 18.95C20.89 18.95 25.72 22.66 25.72 25.72C25.72 26.08 25.58 26.43 25.33 26.68C25.07 26.94 24.73 27.08 24.37 27.08C19.34 27.08 16.56 27.08 14.14 28.3Z" fill="#273941" fill-opacity="1.000000" fill-rule="nonzero"/>
		<path id="Vector" d="M48.75 17.6C41.8 17.6 36.56 14.69 36.56 10.83L39.27 10.83C39.27 12.75 43.32 14.89 48.75 14.89L48.75 17.6Z" fill="#273941" fill-opacity="1.000000" fill-rule="nonzero"/>
		<path id="Vector" d="M16.25 17.6L16.25 14.89C21.67 14.89 25.72 12.75 25.72 10.83L28.43 10.83C28.43 14.69 23.19 17.6 16.25 17.6Z" fill="#273941" fill-opacity="1.000000" fill-rule="nonzero"/>
		<path id="Vector" d="M32.49 33.85C41.36 33.85 48.67 37.38 49.9 41.97C50.02 41.53 50.09 41.08 50.1 40.62C50.1 35.39 42.22 31.14 32.49 31.14C22.77 31.14 14.89 35.39 14.89 40.62C14.9 41.08 14.96 41.53 15.09 41.97C16.31 37.38 23.63 33.85 32.49 33.85Z" fill="#141E21" fill-opacity="1.000000" fill-rule="nonzero"/>
		<path id="Vector" d="M18.95 44.68L18.95 43.33C18.95 42.25 19.38 41.22 20.14 40.46C20.91 39.69 21.94 39.27 23.02 39.27L41.97 39.27C43.05 39.27 44.08 39.69 44.85 40.46C45.61 41.22 46.04 42.25 46.04 43.33L46.04 44.68C46.04 44.68 46.25 46.61 46.59 49C46.89 51.14 47.3 53.66 47.75 55.54C48.07 55.55 48.39 55.61 48.7 55.69L48.75 55.52C47.93 54.7 47.11 49.95 46.59 46.29C46.25 43.9 46.04 41.97 46.04 41.97L46.04 40.62C46.04 39.54 45.61 38.51 44.85 37.75C44.08 36.99 43.05 36.56 41.97 36.56L23.02 36.56C21.94 36.56 20.91 36.99 20.14 37.75C19.38 38.51 18.95 39.54 18.95 40.62L18.95 41.97C18.95 41.97 18.74 43.9 18.4 46.29C17.88 49.95 17.06 54.7 16.25 55.52C16.57 55.52 16.9 55.55 17.22 55.62C17.68 53.72 18.09 51.17 18.4 49C18.74 46.61 18.95 44.68 18.95 44.68Z" fill="#78B300" fill-opacity="1.000000" fill-rule="nonzero"/>
		<path id="Vector" d="M47.39 52.81C46.63 52.76 45.87 52.93 45.19 53.29C44.52 53.65 43.96 54.19 43.57 54.85C43.49 54.85 43.41 54.84 43.33 54.84C42.66 54.83 42.01 55.03 41.46 55.41C41.01 54.91 40.47 54.51 39.85 54.24C39.24 53.96 38.58 53.82 37.91 53.82C37.24 53.82 36.58 53.96 35.97 54.24C35.36 54.51 34.81 54.91 34.36 55.41C33.81 55.04 33.16 54.84 32.5 54.84C31.83 54.84 31.18 55.04 30.63 55.41C30.2 54.89 29.65 54.48 29.04 54.2C28.42 53.93 27.75 53.8 27.08 53.82C26.41 53.8 25.74 53.93 25.12 54.2C24.51 54.48 23.96 54.89 23.53 55.41C22.98 55.03 22.33 54.83 21.66 54.84C21.16 54.84 20.66 54.95 20.2 55.16C19.95 54.56 19.54 54.03 19.01 53.63C18.49 53.24 17.87 52.99 17.22 52.91C17.07 53.83 16.74 54.72 16.25 55.52C17.07 55.45 17.89 55.65 18.59 56.07C19.3 56.49 19.86 57.12 20.2 57.87C20.66 57.66 21.16 57.54 21.66 57.55C22.33 57.54 22.98 57.74 23.53 58.12C23.96 57.6 24.51 57.19 25.12 56.91C25.74 56.64 26.41 56.51 27.08 56.53C27.75 56.51 28.42 56.64 29.04 56.91C29.65 57.19 30.2 57.6 30.63 58.12C31.18 57.75 31.83 57.55 32.5 57.55C33.16 57.55 33.81 57.75 34.36 58.12C34.81 57.62 35.36 57.22 35.97 56.95C36.58 56.67 37.24 56.53 37.91 56.53C38.58 56.53 39.24 56.67 39.85 56.95C40.47 57.22 41.01 57.62 41.46 58.12C42.01 57.74 42.66 57.54 43.33 57.55C43.41 57.55 43.49 57.56 43.57 57.56C43.96 56.9 44.52 56.36 45.19 56C45.87 55.64 46.63 55.47 47.39 55.52C47.83 55.51 48.28 55.57 48.7 55.69L48.75 55.52C48.24 54.7 47.9 53.78 47.75 52.83C47.63 52.82 47.51 52.81 47.39 52.81Z" fill="#426704" fill-opacity="1.000000" fill-rule="nonzero"/>
		<path id="Vector" d="M28.43 43.33C28.43 44.82 27.22 46.04 25.72 46.04C24.23 46.04 23.01 44.82 23.01 43.33C23.01 41.83 24.23 40.62 25.72 40.62C27.22 40.62 28.43 41.83 28.43 43.33Z" fill="#78B300" fill-opacity="1.000000" fill-rule="evenodd"/>
		<path id="Vector" d="M31.14 48.75C31.14 49.49 30.53 50.1 29.79 50.1C29.04 50.1 28.43 49.49 28.43 48.75C28.43 48 29.04 47.39 29.79 47.39C30.53 47.39 31.14 48 31.14 48.75Z" fill="#78B300" fill-opacity="1.000000" fill-rule="evenodd"/>
		<path id="Vector" d="M35.2 43.33C35.2 44.08 34.6 44.68 33.85 44.68C33.1 44.68 32.5 44.08 32.5 43.33C32.5 42.58 33.1 41.97 33.85 41.97C34.6 41.97 35.2 42.58 35.2 43.33Z" fill="#78B300" fill-opacity="1.000000" fill-rule="evenodd"/>
		<path id="Vector" d="M23.02 60.93C23.02 61.68 22.41 62.29 21.66 62.29C20.91 62.29 20.31 61.68 20.31 60.93C20.31 60.18 20.91 59.58 21.66 59.58C22.41 59.58 23.02 60.18 23.02 60.93Z" fill="#4F813B" fill-opacity="1.000000" fill-rule="evenodd"/>
		<path id="Vector" d="M33.85 59.58C33.85 60.33 33.24 60.93 32.49 60.93C31.75 60.93 31.14 60.33 31.14 59.58C31.14 58.83 31.75 58.22 32.49 58.22C33.24 58.22 33.85 58.83 33.85 59.58Z" fill="#4F813B" fill-opacity="1.000000" fill-rule="evenodd"/>
		<path id="Vector" d="M44.68 60.93C44.68 61.68 44.08 62.29 43.33 62.29C42.58 62.29 41.97 61.68 41.97 60.93C41.97 60.18 42.58 59.58 43.33 59.58C44.08 59.58 44.68 60.18 44.68 60.93Z" fill="#4F813B" fill-opacity="1.000000" fill-rule="evenodd"/>
		<path id="Vector" d="M60.93 58.22C60.93 58.97 60.33 59.58 59.58 59.58C58.83 59.58 58.22 58.97 58.22 58.22C58.22 57.48 58.83 56.87 59.58 56.87C60.33 56.87 60.93 57.48 60.93 58.22Z" fill="#4F813B" fill-opacity="1.000000" fill-rule="evenodd"/>
		<path id="Vector" d="M12.18 59.58C12.18 60.33 11.58 60.93 10.83 60.93C10.08 60.93 9.47 60.33 9.47 59.58C9.47 58.83 10.08 58.22 10.83 58.22C11.58 58.22 12.18 58.83 12.18 59.58Z" fill="#4F813B" fill-opacity="1.000000" fill-rule="evenodd"/>
		<path id="Vector" d="M23.02 50.78C23.02 51.15 22.71 51.45 22.34 51.45C21.97 51.45 21.66 51.15 21.66 50.78C21.66 50.4 21.97 50.1 22.34 50.1C22.71 50.1 23.02 50.4 23.02 50.78Z" fill="#A9CC11" fill-opacity="1.000000" fill-rule="evenodd"/>
		<path id="Vector" d="M40.62 42.65C40.62 43.03 40.32 43.33 39.94 43.33C39.57 43.33 39.27 43.03 39.27 42.65C39.27 42.28 39.57 41.97 39.94 41.97C40.32 41.97 40.62 42.28 40.62 42.65Z" fill="#A9CC11" fill-opacity="1.000000" fill-rule="evenodd"/>
		<path id="Vector" d="M44.68 49.42C44.68 49.8 44.38 50.1 44.01 50.1C43.63 50.1 43.33 49.8 43.33 49.42C43.33 49.05 43.63 48.75 44.01 48.75C44.38 48.75 44.68 49.05 44.68 49.42Z" fill="#A9CC11" fill-opacity="1.000000" fill-rule="evenodd"/>
		<path id="Vector" d="M47.39 60.26C47.39 60.63 47.09 60.93 46.71 60.93C46.34 60.93 46.04 60.63 46.04 60.26C46.04 59.88 46.34 59.58 46.71 59.58C47.09 59.58 47.39 59.88 47.39 60.26Z" fill="#A9CC11" fill-opacity="1.000000" fill-rule="evenodd"/>
		<path id="Vector" d="M5.41 58.9C5.41 59.28 5.11 59.58 4.73 59.58C4.36 59.58 4.06 59.28 4.06 58.9C4.06 58.53 4.36 58.22 4.73 58.22C5.11 58.22 5.41 58.53 5.41 58.9Z" fill="#A9CC11" fill-opacity="1.000000" fill-rule="evenodd"/>
		<path id="Vector" d="M58.22 58.9C58.22 59.28 57.92 59.58 57.55 59.58C57.17 59.58 56.87 59.28 56.87 58.9C56.87 58.53 57.17 58.22 57.55 58.22C57.92 58.22 58.22 58.53 58.22 58.9Z" fill="#A9CC11" fill-opacity="1.000000" fill-rule="evenodd"/>
		<path id="Vector" d="M60.93 61.61C60.93 61.98 60.63 62.29 60.26 62.29C59.88 62.29 59.58 61.98 59.58 61.61C59.58 61.24 59.88 60.93 60.26 60.93C60.63 60.93 60.93 61.24 60.93 61.61Z" fill="#A9CC11" fill-opacity="1.000000" fill-rule="evenodd"/>
		<path id="Vector" d="M47.39 57.55C47.39 57.92 47.09 58.22 46.71 58.22C46.34 58.22 46.04 57.92 46.04 57.55C46.04 57.17 46.34 56.87 46.71 56.87C47.09 56.87 47.39 57.17 47.39 57.55Z" fill="#A9CC11" fill-opacity="1.000000" fill-rule="evenodd"/>
		<path id="Vector" d="M25.72 58.9C25.72 59.28 25.42 59.58 25.05 59.58C24.67 59.58 24.37 59.28 24.37 58.9C24.37 58.53 24.67 58.22 25.05 58.22C25.42 58.22 25.72 58.53 25.72 58.9Z" fill="#A9CC11" fill-opacity="1.000000" fill-rule="evenodd"/>
		<path id="Vector" d="M37.91 61.61C37.91 61.98 37.61 62.29 37.23 62.29C36.86 62.29 36.56 61.98 36.56 61.61C36.56 61.24 36.86 60.93 37.23 60.93C37.61 60.93 37.91 61.24 37.91 61.61Z" fill="#A9CC11" fill-opacity="1.000000" fill-rule="evenodd"/>
		<path id="Vector" d="M33.85 52.13C33.85 52.5 33.55 52.81 33.17 52.81C32.8 52.81 32.5 52.5 32.5 52.13C32.5 51.76 32.8 51.45 33.17 51.45C33.55 51.45 33.85 51.76 33.85 52.13Z" fill="#A9CC11" fill-opacity="1.000000" fill-rule="evenodd"/>
		<path id="Vector" d="M40.62 48.75C40.62 50.24 39.41 51.45 37.91 51.45C36.42 51.45 35.2 50.24 35.2 48.75C35.2 47.25 36.42 46.04 37.91 46.04C39.41 46.04 40.62 47.25 40.62 48.75Z" fill="#78B300" fill-opacity="1.000000" fill-rule="evenodd"/>
		<path id="Vector" d="M55.52 59.58C55.52 61.07 54.3 62.29 52.81 62.29C51.31 62.29 50.1 61.07 50.1 59.58C50.1 58.08 51.31 56.87 52.81 56.87C54.3 56.87 55.52 58.08 55.52 59.58Z" fill="#A9CC11" fill-opacity="1.000000" fill-rule="evenodd"/>
		<path id="Vector" d="M18.95 59.58C18.95 61.07 17.74 62.29 16.24 62.29C14.75 62.29 13.54 61.07 13.54 59.58C13.54 58.08 14.75 56.87 16.24 56.87C17.74 56.87 18.95 58.08 18.95 59.58Z" fill="#A9CC11" fill-opacity="1.000000" fill-rule="evenodd"/>
		<path id="Vector" d="M56.29 58.82C56.9 59.42 57.04 60.27 56.6 60.71C56.16 61.14 55.32 61 54.71 60.4C54.1 59.79 53.97 58.94 54.4 58.51C54.84 58.07 55.68 58.21 56.29 58.82Z" fill="#F6FAFD" fill-opacity="1.000000" fill-rule="evenodd"/>
		<path id="Vector" d="M44.11 41.21C44.72 41.81 44.86 42.66 44.42 43.09C43.98 43.53 43.14 43.39 42.53 42.78C41.92 42.18 41.78 41.33 42.22 40.9C42.66 40.46 43.5 40.6 44.11 41.21Z" fill="#F6FAFD" fill-opacity="1.000000" fill-rule="evenodd"/>
		<path id="Vector" d="M52.85 58.53C53.15 58.83 53.22 59.26 53 59.48C52.78 59.7 52.36 59.63 52.05 59.32C51.75 59.02 51.68 58.6 51.9 58.38C52.12 58.16 52.54 58.23 52.85 58.53Z" fill="#F6FAFD" fill-opacity="1.000000" fill-rule="evenodd"/>
		<path id="Vector" d="M44.72 44.99C45.03 45.29 45.1 45.71 44.88 45.93C44.66 46.15 44.24 46.08 43.93 45.78C43.63 45.47 43.56 45.05 43.78 44.83C44 44.61 44.42 44.68 44.72 44.99Z" fill="#F6FAFD" fill-opacity="1.000000" fill-rule="evenodd"/>
	</g>
</svg>
