<svg width="12.000000" height="16.000000" viewBox="0 0 12 16" fill="none" xmlns="http://www.w3.org/2000/svg" xmlns:xlink="http://www.w3.org/1999/xlink">
	<desc>
			Created with Pixso.
	</desc>
	<defs/>
	<path id="Vector" d="M9.74 0L2.25 0C1.64 0.01 1.06 0.28 0.64 0.76C0.21 1.23 -0.02 1.86 0 2.51L0 14.33C-0.01 14.65 0.08 14.97 0.24 15.24C0.4 15.51 0.63 15.72 0.9 15.86C1.16 15.98 1.45 16.01 1.73 15.96C2.01 15.91 2.27 15.78 2.49 15.58L6 12.15L9.5 15.58C9.77 15.84 10.12 15.99 10.49 16C10.69 15.99 10.9 15.95 11.09 15.86C11.36 15.72 11.59 15.51 11.75 15.24C11.91 14.97 12 14.65 11.99 14.33L11.99 2.51C12.01 1.86 11.78 1.23 11.35 0.76C10.93 0.28 10.35 0.01 9.74 0Z" fill="#121A21" fill-opacity="1.000000" fill-rule="nonzero"/>
</svg>
