<svg width="13.500000" height="18.000000" viewBox="0 0 13.5 18" fill="none" xmlns="http://www.w3.org/2000/svg" xmlns:xlink="http://www.w3.org/1999/xlink">
	<desc>
			Created with Pixso.
	</desc>
	<defs/>
	<path id="Vector" d="M10.96 0L2.53 0C1.84 0.01 1.19 0.32 0.72 0.85C0.24 1.38 -0.02 2.09 0 2.83L0 16.12C-0.01 16.48 0.09 16.84 0.27 17.14C0.45 17.45 0.71 17.69 1.02 17.84C1.31 17.97 1.63 18.02 1.95 17.96C2.26 17.9 2.56 17.75 2.8 17.52L6.75 13.67L10.69 17.52C10.99 17.82 11.39 17.99 11.8 18C12.03 17.99 12.26 17.94 12.47 17.84C12.78 17.69 13.04 17.45 13.22 17.14C13.4 16.84 13.5 16.48 13.49 16.12L13.49 2.83C13.51 2.09 13.25 1.38 12.77 0.85C12.3 0.32 11.65 0.01 10.96 0Z" fill="#FFC001" fill-opacity="1.000000" fill-rule="nonzero"/>
</svg>
