<svg width="30.000000" height="30.000000" viewBox="0 0 30 30" fill="none" xmlns="http://www.w3.org/2000/svg" xmlns:xlink="http://www.w3.org/1999/xlink">
	<desc>
			Created with Pixso.
	</desc>
	<defs/>
	<path id="Vector" d="M30 12.5L30 17.5C30 18.87 28.87 20 27.5 20L26.81 20C25.86 25.66 20.93 30 15 30C14.44 30 14 29.55 14 29C14 28.44 14.44 28 15 28C20.51 28 25 23.51 25 18L25 12C25 6.48 20.51 2 15 2C9.48 2 5 6.48 5 12L5 19C5 19.55 4.55 20 4 20L2.5 20C1.12 20 0 18.87 0 17.5L0 12.5C0 11.12 1.12 10 2.5 10L3.18 10C4.13 4.33 9.06 0 15 0C20.93 0 25.86 4.33 26.81 10L27.5 10C28.87 10 30 11.12 30 12.5ZM15 4C10.58 4 7 7.58 7 12L7 17C7 21.41 10.58 25 15 25C19.41 25 23 21.41 23 17L23 12C23 7.58 19.41 4 15 4Z" fill="#FFC001" fill-opacity="1.000000" fill-rule="nonzero"/>
</svg>
