<svg width="15.000000" height="15.000000" viewBox="0 0 15 15" fill="none" xmlns="http://www.w3.org/2000/svg" xmlns:xlink="http://www.w3.org/1999/xlink">
	<desc>
			Created with Pixso.
	</desc>
	<defs/>
	<path id="Vector" d="M12.75 1.5L13.5 1.5C13.87 1.5 14.25 1.87 14.25 2.25L14.25 5.85C13.2 5.02 11.92 4.5 10.5 4.5C7.2 4.5 4.5 7.2 4.5 10.5C4.5 11.54 4.79 12.6 5.32 13.5L0.75 13.5C0.37 13.5 0 13.2 0 12.75L0 2.25C0 1.79 0.37 1.5 0.75 1.5L2.25 1.5L2.25 0.75C2.25 0.29 2.54 0 3 0C3.45 0 3.75 0.29 3.75 0.75L3.75 1.5L11.25 1.5L11.25 0.75C11.25 0.29 11.54 0 12 0C12.45 0 12.75 0.29 12.75 0.75L12.75 1.5ZM6 10.5C6 8.02 8.02 6 10.5 6C12.97 6 15 8.02 15 10.5C15 12.97 12.97 15 10.5 15C8.02 15 6 12.97 6 10.5ZM9.75 10.5C9.75 10.95 10.04 11.25 10.5 11.25L12 11.25C12.45 11.25 12.75 10.95 12.75 10.5C12.75 10.04 12.45 9.75 12 9.75L11.25 9.75L11.25 8.25C11.25 7.79 10.95 7.5 10.5 7.5C10.04 7.5 9.75 7.79 9.75 8.25L9.75 10.5Z" fill="#FFC001" fill-opacity="1.000000" fill-rule="evenodd"/>
</svg>
