<svg width="22.000000" height="19.000000" viewBox="0 0 22 19" fill="none" xmlns="http://www.w3.org/2000/svg" xmlns:xlink="http://www.w3.org/1999/xlink">
	<desc>
			Created with Pixso.
	</desc>
	<defs/>
	<path id="Vector" d="M6.6 12.21L2.53 12.21C1.13 12.21 0 11.08 0 9.7C0 9.51 0.02 9.32 0.06 9.14L1.53 2.49C1.94 1.02 3.3 0 4.84 0L11.68 0C13.58 0 15.12 1.52 15.12 3.39L15.12 10.49C15.12 11.33 14.81 12.13 14.24 12.76L8.76 18.77C8.58 18.96 8.32 19.04 8.08 18.97L7.07 18.73C6.44 18.57 5.93 18.15 5.68 17.56C5.42 16.98 5.45 16.32 5.77 15.76L7.2 13.22C7.37 12.91 7.25 12.64 7.19 12.54C7.13 12.44 6.95 12.21 6.6 12.21ZM22 1.35L22 12.21C22 12.96 21.38 13.57 20.62 13.57L16.5 13.57L16.5 0L20.62 0C21.38 0 22 0.6 22 1.35Z" fill="#2B3A48" fill-opacity="1.000000" fill-rule="evenodd"/>
</svg>
