<svg width="14.681519" height="6.816406" viewBox="0 0 14.6815 6.81641" fill="none" xmlns="http://www.w3.org/2000/svg" xmlns:xlink="http://www.w3.org/1999/xlink">
	<desc>
			Created with Pixso.
	</desc>
	<defs/>
	<path id="image 73 (Traced)" d="M11.25 1.33C11.23 2.07 11.22 3.57 11.22 4.67L11.22 6.67L11.91 6.66L12.59 6.65L12.63 6.47L12.66 6.3L12.83 6.46C13.35 6.97 14.24 6.83 14.52 6.2C14.7 5.81 14.74 2.6 14.57 2.23C14.31 1.67 13.43 1.54 12.92 1.99L12.74 2.14L12.73 1.08L12.72 0.02L12 0.01L11.28 0L11.25 1.33ZM2.01 3.42L2.02 6.74L2.68 6.74L3.33 6.74L3.35 4.67L3.38 2.61L3.63 4.65C3.78 5.77 3.9 6.71 3.91 6.73C3.95 6.79 4.83 6.77 4.85 6.71C4.86 6.67 4.98 5.72 5.11 4.59L5.35 2.54L5.37 4.64L5.38 6.74L6.05 6.75L6.71 6.77L6.71 3.43L6.71 0.09L5.72 0.09L4.73 0.09L4.56 1.56C4.4 3.02 4.37 3.18 4.33 2.76C4.25 2.03 4.09 0.67 4.05 0.41L4 0.09L3 0.09L2 0.09L2.01 3.42ZM7.26 3.42L7.27 6.74L8.17 6.76C10.67 6.79 10.68 6.78 10.72 3.96C10.76 0.17 10.71 0.09 8.23 0.09L7.25 0.09L7.26 3.42ZM0 3.47L0 6.81L0.75 6.81L1.51 6.81L1.51 3.47L1.51 0.14L0.75 0.14L0 0.14L0 3.47ZM9.07 1.28C9.25 1.36 9.25 1.4 9.25 3.38C9.25 5.5 9.25 5.54 8.93 5.58L8.76 5.61L8.76 3.41C8.76 0.93 8.74 1.12 9.07 1.28ZM13.13 2.82C13.22 2.98 13.2 5.67 13.11 5.74C12.97 5.84 12.77 5.77 12.73 5.6C12.68 5.41 12.7 2.84 12.75 2.76C12.81 2.66 13.06 2.69 13.13 2.82Z" fill="#FFFFFF" fill-opacity="1.000000" fill-rule="evenodd"/>
</svg>
