<svg width="28.000000" height="13.000000" viewBox="0 0 28 13" fill="none" xmlns="http://www.w3.org/2000/svg" xmlns:xlink="http://www.w3.org/1999/xlink">
	<desc>
			Created with Pixso.
	</desc>
	<defs/>
	<path id="image 73 (Traced)" d="M21.46 2.55C21.43 3.95 21.41 6.82 21.41 8.92L21.41 12.73L22.71 12.71L24.02 12.68L24.09 12.35L24.16 12.02L24.47 12.32C25.46 13.29 27.16 13.03 27.7 11.83C28.04 11.08 28.11 4.96 27.79 4.26C27.29 3.19 25.62 2.94 24.64 3.8L24.3 4.09L24.28 2.07L24.26 0.04L22.88 0.02L21.51 0L21.46 2.55ZM3.84 6.52L3.86 12.86L5.11 12.86L6.36 12.86L6.4 8.92L6.44 4.98L6.94 8.87C7.21 11.02 7.45 12.8 7.47 12.84C7.54 12.96 9.22 12.92 9.26 12.79C9.28 12.73 9.5 10.92 9.75 8.77L10.22 4.85L10.24 8.86L10.27 12.86L11.54 12.89L12.81 12.91L12.81 6.54L12.81 0.18L10.91 0.18L9.02 0.18L8.71 2.97C8.4 5.77 8.34 6.07 8.25 5.28C8.1 3.88 7.8 1.29 7.73 0.78L7.64 0.18L5.73 0.18L3.82 0.18L3.84 6.52ZM13.84 6.52L13.87 12.86L15.58 12.89C20.36 12.96 20.38 12.94 20.44 7.57C20.53 0.34 20.43 0.18 15.7 0.18L13.82 0.18L13.84 6.52ZM0 6.63L0 13L1.44 13L2.89 13L2.89 6.63L2.89 0.27L1.44 0.27L0 0.27L0 6.63ZM17.29 2.44C17.65 2.61 17.65 2.67 17.65 6.45C17.65 10.5 17.64 10.56 17.04 10.66L16.72 10.7L16.72 6.51C16.72 1.79 16.67 2.14 17.29 2.44ZM25.04 5.37C25.22 5.68 25.18 10.82 25 10.95C24.73 11.15 24.35 11.01 24.28 10.69C24.19 10.32 24.23 5.43 24.32 5.27C24.44 5.07 24.9 5.14 25.04 5.37Z" fill="#FFC001" fill-opacity="1.000000" fill-rule="evenodd"/>
</svg>
