<svg width="15.000000" height="15.000000" viewBox="0 0 15 15" fill="none" xmlns="http://www.w3.org/2000/svg" xmlns:xlink="http://www.w3.org/1999/xlink">
	<desc>
			Created with Pixso.
	</desc>
	<defs/>
	<path id="image 93 (Traced)" d="M6.58 0.06C2.31 0.94 -0.18 3.89 0 7.85C0.28 13.79 6.95 17.02 11.89 13.61C12.43 13.23 13.55 12.12 13.51 11.99C13.49 11.93 7.55 8.8 7.46 8.8C7.44 8.8 8.06 9.45 8.85 10.25C9.64 11.04 10.52 11.94 10.8 12.24L11.33 12.78L10.21 12.77L9.09 12.77L7.73 10.89L6.37 9.01L6.35 10.89L6.33 12.78L5.43 12.78L4.52 12.78L4.52 7.51L4.52 2.25L5.43 2.25L6.33 2.25L6.35 4.13L6.37 6.01L7.73 4.13L9.09 2.25L10.2 2.25L11.31 2.25L10.54 3.07C10.11 3.52 9.23 4.42 8.58 5.07C7.92 5.72 7.38 6.27 7.38 6.3C7.38 6.37 13.48 3.11 13.51 3.03C13.6 2.76 11.65 1.13 10.75 0.73C9.45 0.16 7.58 -0.15 6.58 0.06ZM11.27 5.71C9.59 6.38 8.23 6.94 8.24 6.96C8.27 6.99 14.95 6.56 14.99 6.53C15.08 6.45 14.49 4.47 14.38 4.49C14.35 4.49 12.95 5.04 11.27 5.71ZM11.26 9.29C13.53 10.19 14.41 10.52 14.45 10.45C14.6 10.21 15.06 8.55 14.98 8.49C14.96 8.47 8.38 8.03 8.22 8.04C8.16 8.04 9.53 8.6 11.26 9.29Z" fill="#FFC001" fill-opacity="1.000000" fill-rule="evenodd"/>
</svg>
