<svg width="9.000000" height="9.000000" viewBox="0 0 9 9" fill="none" xmlns="http://www.w3.org/2000/svg" xmlns:xlink="http://www.w3.org/1999/xlink">
	<desc>
			Created with Pixso.
	</desc>
	<defs/>
	<path id="image 93 (Traced)" d="M3.95 0.03C1.38 0.56 -0.11 2.33 0 4.71C0.17 8.27 4.17 10.21 7.13 8.16C7.45 7.94 8.13 7.27 8.1 7.19C8.09 7.16 4.53 5.28 4.47 5.28C4.46 5.28 4.84 5.67 5.31 6.15C5.78 6.62 6.31 7.16 6.48 7.34L6.79 7.66L6.12 7.66L5.45 7.66L4.64 6.53L3.82 5.4L3.81 6.53L3.8 7.66L3.26 7.66L2.71 7.66L2.71 4.5L2.71 1.35L3.26 1.35L3.8 1.35L3.81 2.48L3.82 3.61L4.64 2.48L5.45 1.35L6.12 1.35L6.78 1.35L6.32 1.84C6.07 2.11 5.54 2.65 5.14 3.04C4.75 3.43 4.43 3.76 4.43 3.78C4.43 3.82 8.09 1.87 8.1 1.82C8.16 1.65 6.99 0.68 6.45 0.44C5.67 0.09 4.55 -0.09 3.95 0.03ZM6.76 3.43C5.75 3.83 4.93 4.16 4.94 4.17C4.96 4.19 8.97 3.93 8.99 3.91C9.04 3.87 8.69 2.68 8.62 2.69C8.61 2.69 7.77 3.02 6.76 3.43ZM6.75 5.57C8.11 6.11 8.64 6.31 8.67 6.27C8.76 6.12 9.03 5.13 8.99 5.09C8.97 5.08 5.03 4.81 4.93 4.82C4.9 4.82 5.72 5.16 6.75 5.57Z" fill="#FFFFFF" fill-opacity="1.000000" fill-rule="evenodd"/>
</svg>
