<svg width="22.000000" height="19.000000" viewBox="0 0 22 19" fill="none" xmlns="http://www.w3.org/2000/svg" xmlns:xlink="http://www.w3.org/1999/xlink">
	<desc>
			Created with Pixso.
	</desc>
	<defs/>
	<path id="Vector" d="M15.39 6.78L19.46 6.78C20.86 6.78 22 7.91 22 9.29C22 9.48 21.97 9.67 21.93 9.85L20.46 16.5C20.05 17.97 18.69 18.99 17.15 18.99L10.31 18.99C8.41 18.99 6.87 17.47 6.87 15.6L6.87 8.5C6.87 7.66 7.18 6.86 7.75 6.23L13.23 0.22C13.41 0.03 13.67 -0.05 13.91 0.02L14.92 0.26C15.55 0.42 16.06 0.84 16.31 1.43C16.57 2.01 16.54 2.67 16.22 3.23L14.79 5.77C14.62 6.08 14.74 6.35 14.8 6.45C14.86 6.55 15.04 6.78 15.39 6.78ZM0 17.64L0 6.78C0 6.03 0.61 5.42 1.37 5.42L5.5 5.42L5.5 19L1.37 19C0.61 19 0 18.39 0 17.64Z" fill="#FFC001" fill-opacity="1.000000" fill-rule="evenodd"/>
</svg>
