<svg width="17.647095" height="20.000000" viewBox="0 0 17.6471 20" fill="none" xmlns="http://www.w3.org/2000/svg" xmlns:xlink="http://www.w3.org/1999/xlink">
	<desc>
			Created with Pixso.
	</desc>
	<defs/>
	<path id="Vector" d="M17.64 11.54C17.64 16.21 13.69 20 8.82 20C3.95 20 0 16.21 0 11.54C0 10.86 0.58 10.29 1.3 10.29C2.02 10.29 2.61 10.86 2.61 11.54C2.61 14.83 5.39 17.49 8.82 17.49C12.25 17.49 15.03 14.83 15.03 11.54C15.03 9 13.37 6.84 11.03 5.98C9.86 5.56 8.82 6.61 8.82 7.85C8.82 8.35 8.39 8.73 7.9 8.73C7.64 8.73 7.41 8.63 7.25 8.48L4.34 5.69C3.59 4.97 3.59 3.78 4.34 3.03L7.25 0.25C7.41 0.09 7.64 0 7.9 0C8.43 0 8.82 0.4 8.82 0.87C8.82 2.1 9.83 3.07 11.02 3.36C14.83 4.3 17.64 7.61 17.64 11.54Z" fill="#121A21" fill-opacity="1.000000" fill-rule="nonzero"/>
</svg>
