<svg width="16.000000" height="16.000000" viewBox="0 0 16 16" fill="none" xmlns="http://www.w3.org/2000/svg" xmlns:xlink="http://www.w3.org/1999/xlink">
	<desc>
			Created with Pixso.
	</desc>
	<defs/>
	<path id="Vector" d="M4.83 12.62C6 13.48 7.44 14 9 14C12.86 14 16 10.86 16 7C16 3.13 12.86 0 9 0C5.13 0 2 3.13 2 7C2 8.57 2.52 10.02 3.39 11.18L0.29 14.29L0.28 14.29C-0.1 14.68 -0.1 15.32 0.29 15.71C0.48 15.89 0.73 16 1 16C1.27 16 1.52 15.89 1.71 15.71L4.83 12.62ZM5.56 10.62C6.45 11.47 7.66 12 9 12C11.76 12 14 9.76 14 7C14 4.23 11.76 2 9 2C6.24 2 4 4.23 4 7C4 8.34 4.53 9.56 5.39 10.46C5.43 10.49 5.46 10.52 5.49 10.55C5.52 10.57 5.54 10.6 5.56 10.62Z" fill="#FFC001" fill-opacity="1.000000" fill-rule="evenodd"/>
</svg>
