<svg width="84.000000" height="84.835449" viewBox="0 0 84 84.8354" fill="none" xmlns="http://www.w3.org/2000/svg" xmlns:xlink="http://www.w3.org/1999/xlink">
	<desc>
			Created with Pixso.
	</desc>
	<defs/>
	<path id="Vector" d="M42 0C18.8 0 0 18.99 0 42.41C0 65.84 18.8 84.83 42 84.83C65.19 84.83 84 65.84 84 42.41C84 18.99 65.19 0 42 0ZM56.51 44.66L35.51 57.92C35.09 58.18 34.6 58.32 34.12 58.32C33.68 58.32 33.24 58.21 32.85 57.99C32.01 57.52 31.5 56.63 31.5 55.67L31.5 29.16C31.5 28.19 32.01 27.31 32.85 26.84C33.68 26.37 34.7 26.4 35.51 26.91L56.51 40.16C57.28 40.65 57.75 41.5 57.75 42.41C57.75 43.33 57.28 44.18 56.51 44.66Z" fill="#FFC001" fill-opacity="1.000000" fill-rule="nonzero"/>
</svg>
