<svg width="44.000000" height="44.000000" viewBox="0 0 44 44" fill="none" xmlns="http://www.w3.org/2000/svg" xmlns:xlink="http://www.w3.org/1999/xlink">
	<desc>
			Created with Pixso.
	</desc>
	<defs/>
	<g opacity="0.400000">
		<circle id="Ellipse 143" cx="22.000000" cy="22.000000" r="22.000000" fill="#D9D9D9" fill-opacity="0"/>
		<circle id="Ellipse 143" cx="22.000000" cy="22.000000" r="20.500000" stroke="#FFFFFF" stroke-opacity="1.000000" stroke-width="3.000000"/>
	</g>
	<path id="Ellipse 144" d="M23.5 0.05C28.97 0.42 33.9 2.79 37.55 6.44C41.84 10.73 43.99 16.36 43.99 22C44 28.06 41.53 33.56 37.55 37.55C33.26 41.84 27.63 43.99 22 43.99C15.93 44 10.43 41.53 6.44 37.55C2.53 33.64 0.4 28.62 0.05 23.5C-0.01 22.67 0.67 22 1.5 22C2.33 22 3 22.67 3.06 23.5C3.42 28.14 5.46 32.31 8.57 35.42C12.27 39.13 17.13 40.98 22 40.98C27.24 40.99 31.98 38.86 35.42 35.42C39.13 31.72 40.98 26.86 40.98 22C40.99 16.75 38.86 12.01 35.42 8.57C32.1 5.24 27.85 3.41 23.5 3.06C22.67 3 22 2.33 22 1.5C22 0.67 22.67 -0.01 23.5 0.05Z" fill="#FFC001" fill-opacity="1.000000" fill-rule="evenodd"/>
</svg>
