<svg width="18.000000" height="22.000000" viewBox="0 0 18 22" fill="none" xmlns="http://www.w3.org/2000/svg" xmlns:xlink="http://www.w3.org/1999/xlink">
	<desc>
			Created with Pixso.
	</desc>
	<defs/>
	<path id="Vector" d="M3.4 5.5C3.4 2.46 5.9 0 9 0C12.09 0 14.59 2.46 14.59 5.5C14.59 8.53 12.09 11 9 11C5.9 11 3.4 8.53 3.4 5.5ZM0.94 14.19C1.99 12.93 3.78 12.1 5.64 12.1L12.35 12.1C14.21 12.1 16 12.93 17.05 14.19C17.59 14.82 17.96 15.61 17.99 16.49C18.03 17.38 17.7 18.25 17.02 19.01C15.37 20.86 12.74 22 9 22C5.25 22 2.62 20.86 0.97 19.01C0.29 18.25 -0.04 17.38 0 16.49C0.03 15.61 0.4 14.82 0.94 14.19Z" fill="#FFC001" fill-opacity="1.000000" fill-rule="evenodd"/>
</svg>
